<?xml version="1.0" encoding="UTF-8" standalone="no"?><!DOCTYPE svg PUBLIC "-//W3C//DTD SVG 1.1//EN" "http://www.w3.org/Graphics/SVG/1.1/DTD/svg11.dtd"><svg width="100%" height="100%" viewBox="0 0 16667 16667" version="1.1" xmlns="http://www.w3.org/2000/svg" xmlns:xlink="http://www.w3.org/1999/xlink" xml:space="preserve" xmlns:serif="http://www.serif.com/" style="fill-rule:evenodd;clip-rule:evenodd;stroke-linejoin:round;stroke-miterlimit:2;"><g><path d="M12682.2,9240.4l91.709,0l0,151.494c0,23.217 1.548,42.565 4.643,58.043c3.096,15.479 6.772,27.861 11.029,37.148c4.643,11.222 10.06,19.928 16.252,26.12l-73.716,23.217c-3.482,-3.482 -6.965,-7.932 -10.447,-13.35c-3.096,-4.256 -6.192,-9.77 -9.287,-16.542c-3.096,-6.772 -5.611,-14.608 -7.546,-23.508c-10.061,18.187 -23.895,31.44 -41.501,39.76c-17.607,8.32 -36.664,12.479 -57.173,12.479c-15.091,0 -27.958,-2.418 -38.599,-7.255c-10.641,-4.837 -19.348,-11.609 -26.12,-20.315c-6.771,-8.707 -11.608,-19.251 -14.51,-31.634c-2.903,-12.383 -4.354,-26.313 -4.354,-41.791l0,-193.866l92.29,0l0,181.676c0,13.544 1.644,24.475 4.933,32.795c3.289,8.32 9.384,12.479 18.284,12.479c10.835,0 20.896,-7.255 30.183,-21.766c9.287,-14.511 13.93,-34.536 13.93,-60.075l0,-145.109Z" style="fill:#dc002c;fill-rule:nonzero;"/><path d="M12993.9,9323.98c-4.257,0 -8.9,1.161 -13.931,3.482c-5.03,2.322 -9.867,5.902 -14.51,10.738c-4.644,4.837 -8.514,11.029 -11.609,18.574c-3.096,7.546 -4.644,16.543 -4.644,26.991l0,148.011l-91.708,0l0,-150.914c0,-23.217 -1.645,-42.468 -4.934,-57.753c-3.289,-15.285 -7.062,-27.764 -11.319,-37.438c-4.643,-10.835 -9.867,-19.541 -15.671,-26.12l73.715,-23.217c3.096,3.87 6.385,8.32 9.867,13.35c2.709,4.257 5.611,9.674 8.707,16.252c3.095,6.579 5.611,14.124 7.545,22.637c9.674,-18.574 21.186,-31.924 34.536,-40.05c13.35,-8.126 29.119,-12.189 47.306,-12.189c8.126,0 15.381,0.677 21.766,2.032c6.385,1.354 11.706,2.805 15.962,4.353l-23.798,87.646c-2.708,-1.548 -6.288,-2.999 -10.738,-4.354c-4.45,-1.354 -9.964,-2.031 -16.542,-2.031Z" style="fill:#dc002c;fill-rule:nonzero;"/><path d="M13306.2,9660.05l-91.709,-15.672l0,-137.563c-7.352,8.9 -15.865,15.865 -25.539,20.896c-9.674,5.03 -21.282,7.545 -34.826,7.545c-18.187,0 -34.149,-3.482 -47.886,-10.448c-13.737,-6.965 -25.152,-16.735 -34.246,-29.312c-9.093,-12.576 -15.865,-27.764 -20.315,-45.564c-4.45,-17.8 -6.675,-37.535 -6.675,-59.204c0,-22.057 3.58,-42.565 10.738,-61.526c7.159,-18.961 17.123,-35.31 29.893,-49.047c12.769,-13.737 28.054,-24.475 45.854,-32.214c17.8,-7.739 37.535,-11.609 59.204,-11.609c11.996,0 24.862,0.967 38.599,2.902c13.737,1.935 26.217,3.87 37.439,5.805c13.156,2.321 26.313,5.03 39.469,8.126l0,406.885Zm-134.08,-192.124c6.191,0 11.898,-2.709 17.122,-8.126c5.224,-5.418 9.674,-12.576 13.35,-21.476c3.677,-8.9 6.579,-19.252 8.707,-31.054c2.128,-11.802 3.192,-24.088 3.192,-36.857l0,-62.107c-2.708,-1.161 -6.481,-2.225 -11.318,-3.192c-4.837,-0.968 -8.997,-1.451 -12.48,-1.451c-9.286,0 -17.026,2.031 -23.217,6.094c-6.191,4.063 -11.125,9.674 -14.801,16.833c-3.676,7.158 -6.288,15.768 -7.836,25.829c-1.548,10.061 -2.322,20.896 -2.322,32.505c0,10.834 0.194,21.185 0.581,31.053c0.387,9.867 1.644,18.671 3.773,26.41c2.128,7.739 5.127,13.93 8.996,18.574c3.87,4.643 9.287,6.965 16.253,6.965Z" style="fill:#dc002c;fill-rule:nonzero;"/><path d="M13529.1,9240.4l91.709,0l0,151.494c0,23.217 1.548,42.565 4.644,58.043c3.095,15.479 6.771,27.861 11.028,37.148c4.643,11.222 10.061,19.928 16.252,26.12l-73.715,23.217c-3.483,-3.482 -6.965,-7.932 -10.448,-13.35c-3.096,-4.256 -6.191,-9.77 -9.287,-16.542c-3.096,-6.772 -5.611,-14.608 -7.546,-23.508c-10.061,18.187 -23.894,31.44 -41.501,39.76c-17.606,8.32 -36.664,12.479 -57.173,12.479c-15.091,0 -27.957,-2.418 -38.599,-7.255c-10.641,-4.837 -19.347,-11.609 -26.119,-20.315c-6.772,-8.707 -11.609,-19.251 -14.511,-31.634c-2.902,-12.383 -4.353,-26.313 -4.353,-41.791l0,-193.866l92.289,0l0,181.676c0,13.544 1.644,24.475 4.934,32.795c3.289,8.32 9.383,12.479 18.283,12.479c10.835,0 20.896,-7.255 30.183,-21.766c9.287,-14.511 13.93,-34.536 13.93,-60.075l0,-145.109Z" style="fill:#dc002c;fill-rule:nonzero;"/><path d="M13766.5,9534.1c-22.056,0 -39.856,-5.707 -53.4,-17.122c-13.543,-11.416 -20.315,-27.571 -20.315,-48.467l0,-228.111l91.709,0l0,201.992c0,8.9 1.354,14.897 4.063,17.993c2.709,3.096 6.772,4.644 12.189,4.644c3.096,0 6.191,-0.291 9.287,-0.871c3.096,-0.58 5.031,-1.064 5.804,-1.451l8.127,57.463c-0.387,0.387 -2.129,1.258 -5.224,2.612c-3.096,1.354 -7.159,2.902 -12.189,4.643c-5.031,1.742 -11.029,3.29 -17.994,4.644c-6.965,1.354 -14.317,2.031 -22.057,2.031Zm-26.7,-433.585c16.253,0 28.635,4.837 37.148,14.511c8.513,9.674 12.77,21.863 12.77,36.567c0,15.092 -4.353,27.668 -13.06,37.729c-8.706,10.061 -21.766,15.091 -39.179,15.091c-16.253,0 -28.732,-4.934 -37.438,-14.801c-8.707,-9.867 -13.06,-21.573 -13.06,-35.116c0,-15.479 4.45,-28.345 13.35,-38.599c8.9,-10.255 22.056,-15.382 39.469,-15.382Z" style="fill:#dc002c;fill-rule:nonzero;"/><path d="M13843.7,9394.22c0,-25.927 3.773,-48.854 11.319,-68.782c7.546,-19.928 17.993,-36.568 31.343,-49.918c13.35,-13.35 28.925,-23.507 46.725,-30.472c17.8,-6.966 37.148,-10.448 58.044,-10.448c18.187,0 33.665,2.225 46.435,6.675c12.769,4.45 23.217,10.641 31.343,18.574c8.126,7.932 14.124,17.219 17.994,27.861c3.869,10.641 5.804,22.153 5.804,34.536c0,13.93 -3.482,27.086 -10.448,39.469c-6.965,12.383 -16.929,23.314 -29.892,32.795c-12.963,9.48 -28.635,17.316 -47.015,23.507c-18.381,6.192 -39.18,10.255 -62.397,12.19c2.709,11.608 7.642,20.992 14.801,28.151c7.159,7.158 18.09,10.738 32.795,10.738c8.513,0 17.606,-0.968 27.28,-2.902c9.674,-1.935 18.574,-4.064 26.7,-6.385c9.674,-2.709 19.154,-5.805 28.441,-9.287l17.413,60.365c-10.447,5.03 -21.863,9.48 -34.245,13.35c-10.448,3.096 -22.54,5.998 -36.277,8.707c-13.737,2.708 -28.345,4.063 -43.823,4.063c-23.605,0 -43.823,-3.483 -60.656,-10.448c-16.832,-6.965 -30.569,-16.639 -41.211,-29.022c-10.641,-12.383 -18.38,-27.377 -23.217,-44.984c-4.837,-17.606 -7.256,-37.051 -7.256,-58.333Zm135.822,-94.031c-7.352,0 -13.64,2.128 -18.864,6.385c-5.224,4.256 -9.384,9.867 -12.479,16.832c-3.096,6.966 -5.418,14.705 -6.965,23.218c-1.548,8.513 -2.516,16.832 -2.903,24.959c11.609,-0.387 21.38,-2.129 29.312,-5.224c7.933,-3.096 14.414,-6.966 19.445,-11.609c5.03,-4.644 8.706,-9.674 11.028,-15.091c2.322,-5.418 3.483,-10.448 3.483,-15.092c0,-7.352 -2.032,-13.253 -6.095,-17.703c-4.063,-4.45 -9.383,-6.675 -15.962,-6.675Z" style="fill:#dc002c;fill-rule:nonzero;"/><path d="M8353.93,9531.78l0,-181.096c0,-13.544 -1.644,-24.475 -4.933,-32.795c-3.29,-8.319 -9.384,-12.479 -18.284,-12.479c-10.835,0 -20.896,7.062 -30.183,21.186c-9.287,14.124 -13.93,33.955 -13.93,59.494l0,145.69l-91.709,0l0,-150.914c0,-23.217 -1.645,-42.468 -4.934,-57.753c-3.289,-15.285 -7.062,-27.764 -11.318,-37.438c-4.644,-10.835 -9.868,-19.541 -15.672,-26.12l73.715,-23.217c3.483,3.87 6.965,8.32 10.448,13.35c3.096,4.257 6.095,9.771 8.997,16.542c2.902,6.772 5.32,14.415 7.255,22.928c10.061,-18.187 23.895,-31.537 41.501,-40.05c17.607,-8.513 36.858,-12.77 57.754,-12.77c30.182,0 51.658,9.19 64.428,27.571c12.77,18.38 19.154,42.855 19.154,73.425l0,194.446l-92.289,0Z" style="fill:#dc002c;fill-rule:nonzero;"/><path d="M8482.21,9242.72l47.596,0l9.868,-59.785l79.519,-17.413l0,77.198l68.492,0l-11.029,67.33l-57.463,0l0,129.437c0,17.027 8.9,25.54 26.7,25.54c9.674,0 18.961,-0.968 27.861,-2.903c4.644,-1.16 9.287,-2.321 13.931,-3.482l15.671,61.526c-7.739,2.709 -18.477,5.708 -32.214,8.997c-13.737,3.289 -30.473,4.933 -50.207,4.933c-29.022,0 -51.756,-5.997 -68.202,-17.993c-16.445,-11.996 -24.668,-32.311 -24.668,-60.946l0,-145.109l-45.855,0l0,-67.33Z" style="fill:#dc002c;fill-rule:nonzero;"/><path d="M8826.99,9235.18c14.704,0 28.345,1.258 40.921,3.773c12.576,2.515 23.701,5.321 33.375,8.416c11.222,3.87 21.476,7.933 30.763,12.189l-29.022,65.009c-3.096,-1.548 -7.062,-3.482 -11.899,-5.804c-4.837,-2.322 -10.061,-4.644 -15.672,-6.965c-5.61,-2.322 -11.512,-4.257 -17.703,-5.805c-6.191,-1.548 -12.189,-2.321 -17.993,-2.321c-6.192,0 -11.416,1.354 -15.672,4.063c-4.257,2.708 -6.385,6.965 -6.385,12.769c0,6.192 3.966,12.286 11.899,18.284c7.933,5.998 18.477,11.705 31.634,17.123c23.217,9.674 41.114,21.186 53.69,34.536c12.576,13.35 18.864,31.246 18.864,53.69c0,12.383 -2.225,24.282 -6.675,35.697c-4.45,11.415 -11.028,21.379 -19.735,29.892c-8.706,8.513 -19.638,15.285 -32.794,20.315c-13.157,5.031 -28.248,7.546 -45.274,7.546c-13.544,0 -26.216,-0.967 -38.019,-2.902c-11.802,-1.935 -22.637,-4.353 -32.504,-7.256c-9.867,-2.902 -18.671,-5.804 -26.41,-8.706c-7.739,-2.902 -13.93,-5.514 -18.574,-7.836l30.183,-66.75c1.935,0.774 5.32,2.515 10.157,5.224c4.837,2.709 10.448,5.417 16.833,8.126c6.385,2.709 13.157,5.127 20.315,7.255c7.159,2.129 14.028,3.193 20.606,3.193c8.126,0 14.801,-1.548 20.025,-4.644c5.224,-3.095 7.836,-7.739 7.836,-13.93c0,-7.352 -3.193,-13.931 -9.578,-19.735c-6.384,-5.804 -14.607,-10.641 -24.668,-14.511c-29.022,-11.609 -49.821,-24.668 -62.397,-39.179c-12.576,-14.511 -18.864,-32.601 -18.864,-54.271c0,-12.383 2.322,-23.798 6.965,-34.246c4.644,-10.447 11.415,-19.541 20.315,-27.28c8.901,-7.739 19.639,-13.834 32.215,-18.284c12.576,-4.45 26.99,-6.675 43.242,-6.675Z" style="fill:#dc002c;fill-rule:nonzero;"/><path d="M9175.83,9561.38c17.026,5.804 31.827,10.351 44.403,13.64c12.576,3.289 26.023,4.934 40.34,4.934c15.479,0 27.958,-4.45 37.438,-13.35c9.481,-8.9 14.221,-21.67 14.221,-38.309c0,-17.8 -2.709,-33.665 -8.126,-47.596c-6.578,17.413 -16.252,30.86 -29.022,40.341c-12.769,9.48 -29.408,14.22 -49.917,14.22c-18.961,0 -35.503,-3.482 -49.627,-10.448c-14.124,-6.965 -25.83,-16.735 -35.117,-29.312c-9.287,-12.576 -16.155,-27.764 -20.605,-45.564c-4.45,-17.8 -6.675,-37.535 -6.675,-59.204c0,-22.057 3.579,-42.565 10.738,-61.526c7.159,-18.961 17.123,-35.31 29.892,-49.047c12.77,-13.737 28.055,-24.475 45.855,-32.214c17.8,-7.739 37.534,-11.609 59.204,-11.609c11.609,0 23.701,0.774 36.277,2.322c12.576,1.548 24.379,3.289 35.407,5.224c11.028,1.935 20.702,3.773 29.022,5.514c8.319,1.741 13.833,2.999 16.542,3.773l-2.322,144.528c0,12.383 1.064,23.895 3.193,34.536c2.128,10.641 4.45,21.089 6.965,31.344c2.515,10.254 4.934,20.798 7.255,31.633c2.322,10.835 3.483,22.444 3.483,34.826c0,40.631 -11.512,71.878 -34.536,93.741c-23.024,21.863 -54.271,32.794 -93.74,32.794c-17.8,0 -36.374,-2.128 -55.722,-6.384c-19.348,-4.257 -38.115,-10.255 -56.302,-17.994l21.476,-70.813Zm64.428,-93.45c6.191,0 11.802,-2.612 16.833,-7.836c5.03,-5.224 9.48,-12.286 13.35,-21.186c3.869,-8.9 6.868,-19.154 8.997,-30.763c2.128,-11.609 3.192,-23.798 3.192,-36.567l0,-63.268c-2.709,-1.161 -6.482,-2.225 -11.319,-3.192c-4.837,-0.968 -8.996,-1.451 -12.479,-1.451c-9.287,0 -17.026,2.031 -23.217,6.094c-6.192,4.063 -11.125,9.674 -14.801,16.833c-3.677,7.158 -6.289,15.768 -7.836,25.829c-1.548,10.061 -2.322,20.896 -2.322,32.505c0,10.834 0.193,21.185 0.58,31.053c0.387,9.867 1.645,18.671 3.773,26.41c2.128,7.739 5.127,13.93 8.997,18.574c3.87,4.643 9.287,6.965 16.252,6.965Z" style="fill:#dc002c;fill-rule:nonzero;"/><path d="M9600.13,9240.4l91.709,0l0,151.494c0,23.217 1.548,42.565 4.643,58.043c3.096,15.479 6.772,27.861 11.029,37.148c4.643,11.222 10.061,19.928 16.252,26.12l-73.715,23.217c-3.483,-3.482 -6.966,-7.932 -10.448,-13.35c-3.096,-4.256 -6.192,-9.77 -9.287,-16.542c-3.096,-6.772 -5.611,-14.608 -7.546,-23.508c-10.061,18.187 -23.894,31.44 -41.501,39.76c-17.607,8.32 -36.664,12.479 -57.173,12.479c-15.091,0 -27.958,-2.418 -38.599,-7.255c-10.641,-4.837 -19.348,-11.609 -26.119,-20.315c-6.772,-8.707 -11.609,-19.251 -14.511,-31.634c-2.903,-12.383 -4.354,-26.313 -4.354,-41.791l0,-193.866l92.29,0l0,181.676c0,13.544 1.644,24.475 4.933,32.795c3.289,8.32 9.384,12.479 18.284,12.479c10.835,0 20.896,-7.255 30.183,-21.766c9.287,-14.511 13.93,-34.536 13.93,-60.075l0,-145.109Z" style="fill:#dc002c;fill-rule:nonzero;"/><path d="M9837.52,9534.1c-22.056,0 -39.856,-5.707 -53.4,-17.122c-13.543,-11.416 -20.315,-27.571 -20.315,-48.467l0,-228.111l91.709,0l0,201.992c0,8.9 1.354,14.897 4.063,17.993c2.708,3.096 6.772,4.644 12.189,4.644c3.096,0 6.191,-0.291 9.287,-0.871c3.096,-0.58 5.03,-1.064 5.804,-1.451l8.126,57.463c-0.387,0.387 -2.128,1.258 -5.224,2.612c-3.095,1.354 -7.158,2.902 -12.189,4.643c-5.03,1.742 -11.028,3.29 -17.993,4.644c-6.965,1.354 -14.318,2.031 -22.057,2.031Zm-26.7,-433.585c16.252,0 28.635,4.837 37.148,14.511c8.513,9.674 12.77,21.863 12.77,36.567c0,15.092 -4.354,27.668 -13.06,37.729c-8.707,10.061 -21.767,15.091 -39.18,15.091c-16.252,0 -28.731,-4.934 -37.438,-14.801c-8.706,-9.867 -13.059,-21.573 -13.059,-35.116c0,-15.479 4.45,-28.345 13.35,-38.599c8.9,-10.255 22.056,-15.382 39.469,-15.382Z" style="fill:#dc002c;fill-rule:nonzero;"/><path d="M10099.9,9531.78l0,-181.096c0,-13.544 -1.645,-24.475 -4.934,-32.795c-3.289,-8.319 -9.383,-12.479 -18.283,-12.479c-10.835,0 -20.896,7.062 -30.183,21.186c-9.287,14.124 -13.93,33.955 -13.93,59.494l0,145.69l-91.709,0l0,-150.914c0,-23.217 -1.645,-42.468 -4.934,-57.753c-3.289,-15.285 -7.062,-27.764 -11.318,-37.438c-4.644,-10.835 -9.868,-19.541 -15.672,-26.12l73.715,-23.217c3.483,3.87 6.965,8.32 10.448,13.35c3.096,4.257 6.094,9.771 8.997,16.542c2.902,6.772 5.32,14.415 7.255,22.928c10.061,-18.187 23.895,-31.537 41.501,-40.05c17.607,-8.513 36.858,-12.77 57.754,-12.77c30.182,0 51.658,9.19 64.428,27.571c12.769,18.38 19.154,42.855 19.154,73.425l0,194.446l-92.289,0Z" style="fill:#dc002c;fill-rule:nonzero;"/><path d="M10238,9394.22c0,-25.927 3.772,-48.854 11.318,-68.782c7.546,-19.928 17.994,-36.568 31.344,-49.918c13.35,-13.35 28.925,-23.507 46.725,-30.472c17.8,-6.966 37.148,-10.448 58.043,-10.448c18.187,0 33.666,2.225 46.435,6.675c12.77,4.45 23.218,10.641 31.344,18.574c8.126,7.932 14.124,17.219 17.993,27.861c3.87,10.641 5.804,22.153 5.804,34.536c0,13.93 -3.482,27.086 -10.447,39.469c-6.966,12.383 -16.93,23.314 -29.893,32.795c-12.963,9.48 -28.635,17.316 -47.015,23.507c-18.381,6.192 -39.179,10.255 -62.397,12.19c2.709,11.608 7.643,20.992 14.801,28.151c7.159,7.158 18.09,10.738 32.795,10.738c8.513,0 17.606,-0.968 27.28,-2.902c9.674,-1.935 18.574,-4.064 26.7,-6.385c9.674,-2.709 19.155,-5.805 28.442,-9.287l17.413,60.365c-10.448,5.03 -21.863,9.48 -34.246,13.35c-10.448,3.096 -22.54,5.998 -36.277,8.707c-13.737,2.708 -28.345,4.063 -43.823,4.063c-23.604,0 -43.823,-3.483 -60.656,-10.448c-16.832,-6.965 -30.569,-16.639 -41.21,-29.022c-10.642,-12.383 -18.381,-27.377 -23.218,-44.984c-4.837,-17.606 -7.255,-37.051 -7.255,-58.333Zm135.822,-94.031c-7.353,0 -13.641,2.128 -18.865,6.385c-5.224,4.256 -9.383,9.867 -12.479,16.832c-3.096,6.966 -5.417,14.705 -6.965,23.218c-1.548,8.513 -2.515,16.832 -2.902,24.959c11.608,-0.387 21.379,-2.129 29.312,-5.224c7.932,-3.096 14.414,-6.966 19.444,-11.609c5.031,-4.644 8.707,-9.674 11.028,-15.091c2.322,-5.418 3.483,-10.448 3.483,-15.092c0,-7.352 -2.031,-13.253 -6.094,-17.703c-4.064,-4.45 -9.384,-6.675 -15.962,-6.675Zm-37.729,-132.92l105.64,-124.213l60.365,57.463c-12.383,15.091 -25.926,29.215 -40.631,42.372c-14.704,13.156 -28.441,24.572 -41.211,34.246c-15.091,11.608 -30.182,22.056 -45.274,31.343l-38.889,-41.211Z" style="fill:#dc002c;fill-rule:nonzero;"/><path d="M10516.1,9394.22c0,-25.927 3.773,-48.854 11.319,-68.782c7.545,-19.928 17.993,-36.568 31.343,-49.918c13.35,-13.35 28.925,-23.507 46.725,-30.472c17.8,-6.966 37.148,-10.448 58.044,-10.448c18.187,0 33.665,2.225 46.435,6.675c12.769,4.45 23.217,10.641 31.343,18.574c8.126,7.932 14.124,17.219 17.994,27.861c3.869,10.641 5.804,22.153 5.804,34.536c0,13.93 -3.483,27.086 -10.448,39.469c-6.965,12.383 -16.929,23.314 -29.892,32.795c-12.963,9.48 -28.635,17.316 -47.015,23.507c-18.381,6.192 -39.18,10.255 -62.397,12.19c2.708,11.608 7.642,20.992 14.801,28.151c7.159,7.158 18.09,10.738 32.794,10.738c8.513,0 17.607,-0.968 27.281,-2.902c9.674,-1.935 18.574,-4.064 26.7,-6.385c9.674,-2.709 19.154,-5.805 28.441,-9.287l17.413,60.365c-10.448,5.03 -21.863,9.48 -34.245,13.35c-10.448,3.096 -22.541,5.998 -36.278,8.707c-13.737,2.708 -28.344,4.063 -43.822,4.063c-23.605,0 -43.823,-3.483 -60.656,-10.448c-16.833,-6.965 -30.57,-16.639 -41.211,-29.022c-10.641,-12.383 -18.38,-27.377 -23.217,-44.984c-4.837,-17.606 -7.256,-37.051 -7.256,-58.333Zm135.822,-94.031c-7.352,0 -13.64,2.128 -18.864,6.385c-5.224,4.256 -9.384,9.867 -12.479,16.832c-3.096,6.966 -5.418,14.705 -6.966,23.218c-1.547,8.513 -2.515,16.832 -2.902,24.959c11.609,-0.387 21.38,-2.129 29.312,-5.224c7.933,-3.096 14.414,-6.966 19.445,-11.609c5.03,-4.644 8.706,-9.674 11.028,-15.091c2.322,-5.418 3.483,-10.448 3.483,-15.092c0,-7.352 -2.032,-13.253 -6.095,-17.703c-4.063,-4.45 -9.384,-6.675 -15.962,-6.675Z" style="fill:#dc002c;fill-rule:nonzero;"/><path d="M10979.2,9531.78l0,-181.096c0,-13.544 -1.645,-24.475 -4.934,-32.795c-3.289,-8.319 -9.384,-12.479 -18.284,-12.479c-10.834,0 -20.895,7.062 -30.182,21.186c-9.287,14.124 -13.931,33.955 -13.931,59.494l0,145.69l-91.709,0l0,-150.914c0,-23.217 -1.644,-42.468 -4.933,-57.753c-3.289,-15.285 -7.062,-27.764 -11.319,-37.438c-4.643,-10.835 -9.867,-19.541 -15.672,-26.12l73.716,-23.217c3.482,3.87 6.965,8.32 10.448,13.35c3.095,4.257 6.094,9.771 8.996,16.542c2.903,6.772 5.321,14.415 7.256,22.928c10.061,-18.187 23.894,-31.537 41.501,-40.05c17.606,-8.513 36.858,-12.77 57.753,-12.77c30.183,0 51.659,9.19 64.429,27.571c12.769,18.38 19.154,42.855 19.154,73.425l0,194.446l-92.289,0Z" style="fill:#dc002c;fill-rule:nonzero;"/><path d="M11224.8,9235.18c14.704,0 28.345,1.258 40.921,3.773c12.576,2.515 23.701,5.321 33.375,8.416c11.221,3.87 21.476,7.933 30.763,12.189l-29.022,65.009c-3.096,-1.548 -7.062,-3.482 -11.899,-5.804c-4.837,-2.322 -10.061,-4.644 -15.672,-6.965c-5.611,-2.322 -11.512,-4.257 -17.703,-5.805c-6.191,-1.548 -12.189,-2.321 -17.994,-2.321c-6.191,0 -11.415,1.354 -15.671,4.063c-4.257,2.708 -6.385,6.965 -6.385,12.769c0,6.192 3.966,12.286 11.899,18.284c7.932,5.998 18.477,11.705 31.634,17.123c23.217,9.674 41.114,21.186 53.69,34.536c12.576,13.35 18.864,31.246 18.864,53.69c0,12.383 -2.225,24.282 -6.675,35.697c-4.45,11.415 -11.028,21.379 -19.735,29.892c-8.706,8.513 -19.638,15.285 -32.794,20.315c-13.157,5.031 -28.248,7.546 -45.274,7.546c-13.544,0 -26.217,-0.967 -38.019,-2.902c-11.802,-1.935 -22.637,-4.353 -32.504,-7.256c-9.868,-2.902 -18.671,-5.804 -26.41,-8.706c-7.739,-2.902 -13.931,-5.514 -18.574,-7.836l30.183,-66.75c1.934,0.774 5.32,2.515 10.157,5.224c4.837,2.709 10.448,5.417 16.833,8.126c6.385,2.709 13.156,5.127 20.315,7.255c7.159,2.129 14.027,3.193 20.606,3.193c8.126,0 14.801,-1.548 20.025,-4.644c5.224,-3.095 7.835,-7.739 7.835,-13.93c0,-7.352 -3.192,-13.931 -9.577,-19.735c-6.384,-5.804 -14.607,-10.641 -24.668,-14.511c-29.022,-11.609 -49.821,-24.668 -62.397,-39.179c-12.576,-14.511 -18.864,-32.601 -18.864,-54.271c0,-12.383 2.322,-23.798 6.965,-34.246c4.644,-10.447 11.415,-19.541 20.315,-27.28c8.9,-7.739 19.638,-13.834 32.214,-18.284c12.577,-4.45 26.991,-6.675 43.243,-6.675Z" style="fill:#dc002c;fill-rule:nonzero;"/><path d="M11510.9,9394.22c0,-25.927 3.772,-48.854 11.318,-68.782c7.546,-19.928 17.994,-36.568 31.344,-49.918c13.35,-13.35 28.925,-23.507 46.725,-30.472c17.8,-6.966 37.148,-10.448 58.043,-10.448c18.187,0 33.665,2.225 46.435,6.675c12.77,4.45 23.217,10.641 31.344,18.574c8.126,7.932 14.123,17.219 17.993,27.861c3.87,10.641 5.804,22.153 5.804,34.536c0,13.93 -3.482,27.086 -10.447,39.469c-6.966,12.383 -16.93,23.314 -29.893,32.795c-12.963,9.48 -28.635,17.316 -47.015,23.507c-18.381,6.192 -39.18,10.255 -62.397,12.19c2.709,11.608 7.642,20.992 14.801,28.151c7.159,7.158 18.09,10.738 32.795,10.738c8.513,0 17.606,-0.968 27.28,-2.902c9.674,-1.935 18.574,-4.064 26.7,-6.385c9.674,-2.709 19.155,-5.805 28.442,-9.287l17.413,60.365c-10.448,5.03 -21.863,9.48 -34.246,13.35c-10.448,3.096 -22.54,5.998 -36.277,8.707c-13.737,2.708 -28.345,4.063 -43.823,4.063c-23.605,0 -43.823,-3.483 -60.656,-10.448c-16.832,-6.965 -30.569,-16.639 -41.211,-29.022c-10.641,-12.383 -18.38,-27.377 -23.217,-44.984c-4.837,-17.606 -7.255,-37.051 -7.255,-58.333Zm135.821,-94.031c-7.352,0 -13.64,2.128 -18.864,6.385c-5.224,4.256 -9.383,9.867 -12.479,16.832c-3.096,6.966 -5.417,14.705 -6.965,23.218c-1.548,8.513 -2.515,16.832 -2.902,24.959c11.608,-0.387 21.379,-2.129 29.312,-5.224c7.932,-3.096 14.414,-6.966 19.444,-11.609c5.031,-4.644 8.707,-9.674 11.028,-15.091c2.322,-5.418 3.483,-10.448 3.483,-15.092c0,-7.352 -2.031,-13.253 -6.095,-17.703c-4.063,-4.45 -9.383,-6.675 -15.962,-6.675Z" style="fill:#dc002c;fill-rule:nonzero;"/><path d="M11974.1,9531.78l0,-181.096c0,-13.544 -1.644,-24.475 -4.934,-32.795c-3.289,-8.319 -9.383,-12.479 -18.283,-12.479c-10.835,0 -20.896,7.062 -30.183,21.186c-9.287,14.124 -13.93,33.955 -13.93,59.494l0,145.69l-91.709,0l0,-150.914c0,-23.217 -1.645,-42.468 -4.934,-57.753c-3.289,-15.285 -7.062,-27.764 -11.318,-37.438c-4.644,-10.835 -9.868,-19.541 -15.672,-26.12l73.715,-23.217c3.483,3.87 6.965,8.32 10.448,13.35c3.096,4.257 6.095,9.771 8.997,16.542c2.902,6.772 5.32,14.415 7.255,22.928c10.061,-18.187 23.895,-31.537 41.501,-40.05c17.607,-8.513 36.858,-12.77 57.754,-12.77c30.182,0 51.658,9.19 64.428,27.571c12.77,18.38 19.154,42.855 19.154,73.425l0,194.446l-92.289,0Z" style="fill:#dc002c;fill-rule:nonzero;"/><path d="M12537.7,9138.82l-12.189,70.233l-90.548,0l0,322.722l-95.772,0l0,-322.722l-93.45,0l0,-70.233l291.959,0Z" style="fill:#dc002c;fill-rule:nonzero;"/><path d="M6822.75,9242.72l47.596,0l9.867,-59.785l79.52,-17.413l0,77.198l68.492,0l-11.029,67.33l-57.463,0l0,129.437c0,17.027 8.9,25.54 26.7,25.54c9.674,0 18.961,-0.968 27.861,-2.903c4.644,-1.16 9.287,-2.321 13.931,-3.482l15.671,61.526c-7.739,2.709 -18.477,5.708 -32.214,8.997c-13.737,3.289 -30.473,4.933 -50.208,4.933c-29.021,0 -51.755,-5.997 -68.201,-17.993c-16.445,-11.996 -24.668,-32.311 -24.668,-60.946l0,-145.109l-45.855,0l0,-67.33Z" style="fill:#dc002c;fill-rule:nonzero;"/><path d="M7234.28,9240.4l91.709,0l0,151.494c0,23.217 1.548,42.565 4.643,58.043c3.096,15.479 6.772,27.861 11.029,37.148c4.643,11.222 10.061,19.928 16.252,26.12l-73.715,23.217c-3.483,-3.482 -6.966,-7.932 -10.448,-13.35c-3.096,-4.256 -6.192,-9.77 -9.287,-16.542c-3.096,-6.772 -5.611,-14.608 -7.546,-23.508c-10.061,18.187 -23.895,31.44 -41.501,39.76c-17.607,8.32 -36.664,12.479 -57.173,12.479c-15.091,0 -27.958,-2.418 -38.599,-7.255c-10.641,-4.837 -19.348,-11.609 -26.12,-20.315c-6.771,-8.707 -11.608,-19.251 -14.51,-31.634c-2.903,-12.383 -4.354,-26.313 -4.354,-41.791l0,-193.866l92.29,0l0,181.676c0,13.544 1.644,24.475 4.933,32.795c3.289,8.32 9.384,12.479 18.284,12.479c10.835,0 20.896,-7.255 30.183,-21.766c9.287,-14.511 13.93,-34.536 13.93,-60.075l0,-145.109Z" style="fill:#dc002c;fill-rule:nonzero;"/><path d="M7602.86,9536.42l-3.483,-4.063c-2.322,-2.322 -5.03,-5.998 -8.126,-11.028c-3.096,-5.031 -6.191,-11.125 -9.287,-18.284c-3.096,-7.159 -5.417,-15.381 -6.965,-24.668c-6.579,18.187 -16.252,32.214 -29.022,42.081c-12.77,9.868 -29.602,14.801 -50.498,14.801c-18.961,0 -35.503,-3.482 -49.627,-10.448c-14.124,-6.965 -25.83,-16.735 -35.117,-29.312c-9.286,-12.576 -16.155,-27.764 -20.605,-45.564c-4.45,-17.8 -6.675,-37.535 -6.675,-59.204c0,-22.057 3.579,-42.565 10.738,-61.526c7.159,-18.961 17.123,-35.31 29.892,-49.047c12.77,-13.737 28.055,-24.475 45.855,-32.214c17.8,-7.739 37.535,-11.609 59.204,-11.609c3.483,0 7.256,0.194 11.319,0.581c4.063,0.386 8.223,0.773 12.479,1.16l0,-126.535l91.709,15.092l0,265.259c0,22.83 1.645,41.985 4.934,57.463c3.289,15.478 6.868,27.958 10.738,37.438c3.869,9.48 7.545,16.155 11.028,20.025l5.224,6.385l-73.715,23.217Zm-92.29,-68.491c5.805,0 11.319,-2.515 16.543,-7.546c5.224,-5.03 9.77,-11.802 13.64,-20.315c3.87,-8.513 6.868,-18.284 8.997,-29.312c2.128,-11.028 3.192,-22.734 3.192,-35.116l0,-67.331c-2.709,-1.161 -6.481,-2.225 -11.318,-3.192c-4.837,-0.968 -8.997,-1.451 -12.48,-1.451c-9.287,0 -17.026,2.031 -23.217,6.094c-6.191,4.063 -11.125,9.674 -14.801,16.833c-3.676,7.158 -6.288,15.768 -7.836,25.829c-1.548,10.061 -2.322,20.896 -2.322,32.505c0,10.834 0.194,21.185 0.581,31.053c0.387,9.867 1.644,18.671 3.772,26.41c2.129,7.739 5.128,13.93 8.997,18.574c3.87,4.643 9.287,6.965 16.252,6.965Z" style="fill:#dc002c;fill-rule:nonzero;"/><path d="M7787.43,9534.1c-22.056,0 -39.856,-5.707 -53.4,-17.122c-13.543,-11.416 -20.315,-27.571 -20.315,-48.467l0,-228.111l91.709,0l0,201.992c0,8.9 1.354,14.897 4.063,17.993c2.708,3.096 6.771,4.644 12.189,4.644c3.095,0 6.191,-0.291 9.287,-0.871c3.095,-0.58 5.03,-1.064 5.804,-1.451l8.126,57.463c-0.387,0.387 -2.128,1.258 -5.224,2.612c-3.095,1.354 -7.158,2.902 -12.189,4.643c-5.03,1.742 -11.028,3.29 -17.993,4.644c-6.966,1.354 -14.318,2.031 -22.057,2.031Zm-26.7,-433.585c16.252,0 28.635,4.837 37.148,14.511c8.513,9.674 12.769,21.863 12.769,36.567c0,15.092 -4.353,27.668 -13.059,37.729c-8.707,10.061 -21.767,15.091 -39.18,15.091c-16.252,0 -28.731,-4.934 -37.438,-14.801c-8.706,-9.867 -13.06,-21.573 -13.06,-35.116c0,-15.479 4.45,-28.345 13.35,-38.599c8.9,-10.255 22.057,-15.382 39.47,-15.382Z" style="fill:#dc002c;fill-rule:nonzero;"/><path d="M8125.83,9391.89c0,23.217 1.548,42.565 4.643,58.043c3.096,15.479 6.772,27.861 11.029,37.148c4.643,11.222 10.061,19.928 16.252,26.12l-73.715,23.217c-4.257,-3.869 -8.127,-8.706 -11.609,-14.511c-3.096,-5.03 -6.095,-11.125 -8.997,-18.283c-2.902,-7.159 -5.321,-15.575 -7.255,-25.249c-6.579,18.187 -16.253,32.214 -29.022,42.081c-12.77,9.868 -29.602,14.801 -50.498,14.801c-18.961,0 -35.503,-3.482 -49.627,-10.448c-14.124,-6.965 -25.83,-16.735 -35.117,-29.312c-9.287,-12.576 -16.155,-27.764 -20.605,-45.564c-4.45,-17.8 -6.675,-37.535 -6.675,-59.204c0,-22.057 3.579,-42.565 10.738,-61.526c7.159,-18.961 17.123,-35.31 29.892,-49.047c12.77,-13.737 28.055,-24.475 45.855,-32.214c17.8,-7.739 37.535,-11.609 59.204,-11.609c11.996,0 24.766,0.871 38.309,2.612c13.544,1.741 25.926,3.676 37.148,5.804c11.222,2.129 20.605,4.063 28.151,5.805c7.546,1.741 11.512,2.612 11.899,2.612l0,138.724Zm-134.081,76.037c5.805,0 11.319,-2.515 16.543,-7.546c5.224,-5.03 9.77,-11.802 13.64,-20.315c3.87,-8.513 6.868,-18.284 8.997,-29.312c2.128,-11.028 3.192,-22.734 3.192,-35.116l0,-67.331c-2.709,-1.161 -6.481,-2.225 -11.318,-3.192c-4.837,-0.968 -8.997,-1.451 -12.48,-1.451c-9.287,0 -17.026,2.031 -23.217,6.094c-6.191,4.063 -11.125,9.674 -14.801,16.833c-3.676,7.158 -6.288,15.768 -7.836,25.829c-1.548,10.061 -2.322,20.896 -2.322,32.505c0,10.834 0.194,21.185 0.581,31.053c0.387,9.867 1.644,18.671 3.772,26.41c2.129,7.739 5.128,13.93 8.997,18.574c3.87,4.643 9.287,6.965 16.252,6.965Z" style="fill:#dc002c;fill-rule:nonzero;"/><path d="M2835.16,9391.89c0,23.217 1.548,42.565 4.643,58.043c3.096,15.479 6.772,27.861 11.029,37.148c4.643,11.222 10.06,19.928 16.252,26.12l-73.716,23.217c-4.256,-3.869 -8.126,-8.706 -11.608,-14.511c-3.096,-5.03 -6.095,-11.125 -8.997,-18.283c-2.902,-7.159 -5.321,-15.575 -7.255,-25.249c-6.579,18.187 -16.253,32.214 -29.022,42.081c-12.77,9.868 -29.602,14.801 -50.498,14.801c-18.961,0 -35.503,-3.482 -49.627,-10.448c-14.124,-6.965 -25.83,-16.735 -35.117,-29.312c-9.287,-12.576 -16.155,-27.764 -20.605,-45.564c-4.45,-17.8 -6.675,-37.535 -6.675,-59.204c0,-22.057 3.579,-42.565 10.738,-61.526c7.159,-18.961 17.123,-35.31 29.892,-49.047c12.77,-13.737 28.055,-24.475 45.855,-32.214c17.8,-7.739 37.535,-11.609 59.204,-11.609c11.996,0 24.765,0.871 38.309,2.612c13.543,1.741 25.926,3.676 37.148,5.804c11.222,2.129 20.605,4.063 28.151,5.805c7.546,1.741 11.512,2.612 11.899,2.612l0,138.724Zm-134.081,76.037c5.805,0 11.319,-2.515 16.543,-7.546c5.224,-5.03 9.77,-11.802 13.64,-20.315c3.869,-8.513 6.868,-18.284 8.997,-29.312c2.128,-11.028 3.192,-22.734 3.192,-35.116l0,-67.331c-2.709,-1.161 -6.482,-2.225 -11.319,-3.192c-4.836,-0.968 -8.996,-1.451 -12.479,-1.451c-9.287,0 -17.026,2.031 -23.217,6.094c-6.192,4.063 -11.125,9.674 -14.801,16.833c-3.676,7.158 -6.288,15.768 -7.836,25.829c-1.548,10.061 -2.322,20.896 -2.322,32.505c0,10.834 0.193,21.185 0.58,31.053c0.387,9.867 1.645,18.671 3.773,26.41c2.129,7.739 5.127,13.93 8.997,18.574c3.87,4.643 9.287,6.965 16.252,6.965Z" style="fill:#dc002c;fill-rule:nonzero;"/><path d="M2997.1,9235.18c14.705,0 28.345,1.258 40.921,3.773c12.576,2.515 23.701,5.321 33.375,8.416c11.222,3.87 21.476,7.933 30.763,12.189l-29.022,65.009c-3.095,-1.548 -7.062,-3.482 -11.899,-5.804c-4.837,-2.322 -10.06,-4.644 -15.671,-6.965c-5.611,-2.322 -11.512,-4.257 -17.704,-5.805c-6.191,-1.548 -12.189,-2.321 -17.993,-2.321c-6.191,0 -11.415,1.354 -15.672,4.063c-4.256,2.708 -6.385,6.965 -6.385,12.769c0,6.192 3.967,12.286 11.899,18.284c7.933,5.998 18.477,11.705 31.634,17.123c23.217,9.674 41.114,21.186 53.69,34.536c12.576,13.35 18.864,31.246 18.864,53.69c0,12.383 -2.225,24.282 -6.675,35.697c-4.45,11.415 -11.028,21.379 -19.734,29.892c-8.707,8.513 -19.638,15.285 -32.795,20.315c-13.157,5.031 -28.248,7.546 -45.274,7.546c-13.543,0 -26.216,-0.967 -38.019,-2.902c-11.802,-1.935 -22.636,-4.353 -32.504,-7.256c-9.867,-2.902 -18.671,-5.804 -26.41,-8.706c-7.739,-2.902 -13.93,-5.514 -18.574,-7.836l30.183,-66.75c1.935,0.774 5.321,2.515 10.158,5.224c4.837,2.709 10.447,5.417 16.832,8.126c6.385,2.709 13.157,5.127 20.315,7.255c7.159,2.129 14.028,3.193 20.606,3.193c8.126,0 14.801,-1.548 20.025,-4.644c5.224,-3.095 7.836,-7.739 7.836,-13.93c0,-7.352 -3.193,-13.931 -9.577,-19.735c-6.385,-5.804 -14.608,-10.641 -24.669,-14.511c-29.022,-11.609 -49.821,-24.668 -62.397,-39.179c-12.576,-14.511 -18.864,-32.601 -18.864,-54.271c0,-12.383 2.322,-23.798 6.965,-34.246c4.644,-10.447 11.416,-19.541 20.316,-27.28c8.9,-7.739 19.638,-13.834 32.214,-18.284c12.576,-4.45 26.99,-6.675 43.242,-6.675Z" style="fill:#dc002c;fill-rule:nonzero;"/><path d="M3242.62,9235.18c14.705,0 28.345,1.258 40.921,3.773c12.576,2.515 23.701,5.321 33.375,8.416c11.222,3.87 21.476,7.933 30.763,12.189l-29.021,65.009c-3.096,-1.548 -7.062,-3.482 -11.899,-5.804c-4.837,-2.322 -10.061,-4.644 -15.672,-6.965c-5.611,-2.322 -11.512,-4.257 -17.703,-5.805c-6.192,-1.548 -12.19,-2.321 -17.994,-2.321c-6.191,0 -11.415,1.354 -15.672,4.063c-4.256,2.708 -6.384,6.965 -6.384,12.769c0,6.192 3.966,12.286 11.898,18.284c7.933,5.998 18.478,11.705 31.634,17.123c23.218,9.674 41.114,21.186 53.69,34.536c12.577,13.35 18.865,31.246 18.865,53.69c0,12.383 -2.225,24.282 -6.675,35.697c-4.45,11.415 -11.029,21.379 -19.735,29.892c-8.707,8.513 -19.638,15.285 -32.795,20.315c-13.156,5.031 -28.248,7.546 -45.274,7.546c-13.543,0 -26.216,-0.967 -38.018,-2.902c-11.802,-1.935 -22.637,-4.353 -32.505,-7.256c-9.867,-2.902 -18.67,-5.804 -26.41,-8.706c-7.739,-2.902 -13.93,-5.514 -18.573,-7.836l30.182,-66.75c1.935,0.774 5.321,2.515 10.158,5.224c4.837,2.709 10.448,5.417 16.832,8.126c6.385,2.709 13.157,5.127 20.316,7.255c7.158,2.129 14.027,3.193 20.605,3.193c8.126,0 14.801,-1.548 20.025,-4.644c5.224,-3.095 7.836,-7.739 7.836,-13.93c0,-7.352 -3.192,-13.931 -9.577,-19.735c-6.385,-5.804 -14.608,-10.641 -24.669,-14.511c-29.021,-11.609 -49.82,-24.668 -62.396,-39.179c-12.577,-14.511 -18.865,-32.601 -18.865,-54.271c0,-12.383 2.322,-23.798 6.966,-34.246c4.643,-10.447 11.415,-19.541 20.315,-27.28c8.9,-7.739 19.638,-13.834 32.214,-18.284c12.576,-4.45 26.99,-6.675 43.242,-6.675Z" style="fill:#dc002c;fill-rule:nonzero;"/><path d="M3518.33,9234.59c46.048,0 79.617,13.156 100.706,39.469c21.089,26.313 31.634,62.687 31.634,109.122c0,22.057 -2.806,42.469 -8.417,61.236c-5.611,18.768 -14.124,35.02 -25.539,48.757c-11.415,13.737 -25.733,24.572 -42.952,32.504c-17.22,7.933 -37.245,11.899 -60.075,11.899c-23.218,0 -43.243,-3.386 -60.075,-10.158c-16.833,-6.771 -30.57,-16.542 -41.211,-29.312c-10.641,-12.769 -18.574,-28.344 -23.798,-46.725c-5.224,-18.38 -7.836,-38.986 -7.836,-61.816c0,-22.057 2.806,-42.565 8.416,-61.526c5.611,-18.961 14.124,-35.31 25.54,-49.047c11.415,-13.737 25.732,-24.572 42.952,-32.504c17.219,-7.933 37.438,-11.899 60.655,-11.899Zm-5.224,69.072c-6.965,0 -12.769,2.031 -17.413,6.094c-4.643,4.063 -8.223,9.674 -10.738,16.833c-2.515,7.158 -4.256,15.575 -5.224,25.249c-0.967,9.674 -1.451,20.121 -1.451,31.343c0,11.609 0.581,22.637 1.742,33.085c1.16,10.448 3.192,19.541 6.094,27.281c2.902,7.739 7.062,13.833 12.48,18.283c5.417,4.45 12.189,6.675 20.315,6.675c6.965,0 12.769,-2.128 17.413,-6.385c4.643,-4.256 8.223,-9.964 10.738,-17.122c2.515,-7.159 4.256,-15.575 5.224,-25.249c0.967,-9.674 1.451,-19.929 1.451,-30.763c0,-11.996 -0.581,-23.121 -1.741,-33.375c-1.161,-10.255 -3.193,-19.252 -6.095,-26.991c-2.902,-7.739 -7.062,-13.833 -12.479,-18.283c-5.418,-4.45 -12.19,-6.675 -20.316,-6.675Z" style="fill:#dc002c;fill-rule:nonzero;"/><path d="M3863.11,9322.82c-4.644,-5.417 -9.48,-10.061 -14.511,-13.931c-5.03,-3.869 -11.415,-5.804 -19.154,-5.804c-4.644,0 -9.868,0.774 -15.672,2.322c-5.804,1.548 -11.222,5.127 -16.252,10.738c-5.031,5.611 -9.19,13.737 -12.48,24.378c-3.289,10.642 -4.933,25.249 -4.933,43.823c0,18.187 1.838,32.795 5.514,43.823c3.676,11.028 8.319,19.445 13.93,25.249c5.611,5.804 11.802,9.674 18.574,11.609c6.772,1.934 13.253,2.902 19.445,2.902c4.643,0 9.674,-0.581 15.091,-1.741c5.418,-1.161 10.545,-2.419 15.382,-3.773c4.837,-1.355 8.996,-2.709 12.479,-4.063c3.483,-1.355 5.417,-2.032 5.804,-2.032l16.833,60.946l-6.385,2.902c-4.256,2.322 -10.157,4.74 -17.703,7.255c-7.546,2.516 -16.639,4.741 -27.281,6.675c-10.641,1.935 -22.346,2.903 -35.116,2.903c-23.604,0 -43.919,-3.483 -60.946,-10.448c-17.026,-6.965 -30.956,-16.639 -41.791,-29.022c-10.835,-12.383 -18.767,-27.377 -23.798,-44.984c-5.03,-17.606 -7.545,-37.051 -7.545,-58.333c0,-25.927 3.579,-48.854 10.738,-68.782c7.158,-19.928 17.026,-36.664 29.602,-50.208c12.576,-13.543 27.474,-23.701 44.693,-30.473c17.22,-6.771 35.891,-10.157 56.012,-10.157c18.961,0 35.6,3.773 49.918,11.318c14.317,7.546 25.926,17.51 34.826,29.893l-45.274,47.015Z" style="fill:#dc002c;fill-rule:nonzero;"/><path d="M4014.02,9534.1c-22.056,0 -39.856,-5.707 -53.4,-17.122c-13.543,-11.416 -20.315,-27.571 -20.315,-48.467l0,-228.111l91.709,0l0,201.992c0,8.9 1.354,14.897 4.063,17.993c2.708,3.096 6.771,4.644 12.189,4.644c3.096,0 6.191,-0.291 9.287,-0.871c3.095,-0.58 5.03,-1.064 5.804,-1.451l8.126,57.463c-0.387,0.387 -2.128,1.258 -5.224,2.612c-3.095,1.354 -7.158,2.902 -12.189,4.643c-5.03,1.742 -11.028,3.29 -17.993,4.644c-6.966,1.354 -14.318,2.031 -22.057,2.031Zm-26.7,-433.585c16.252,0 28.635,4.837 37.148,14.511c8.513,9.674 12.77,21.863 12.77,36.567c0,15.092 -4.354,27.668 -13.06,37.729c-8.707,10.061 -21.767,15.091 -39.18,15.091c-16.252,0 -28.731,-4.934 -37.438,-14.801c-8.706,-9.867 -13.059,-21.573 -13.059,-35.116c0,-15.479 4.45,-28.345 13.35,-38.599c8.9,-10.255 22.056,-15.382 39.469,-15.382Z" style="fill:#dc002c;fill-rule:nonzero;"/><path d="M4352.41,9391.89c0,23.217 1.548,42.565 4.644,58.043c3.095,15.479 6.771,27.861 11.028,37.148c4.643,11.222 10.061,19.928 16.252,26.12l-73.715,23.217c-4.257,-3.869 -8.126,-8.706 -11.609,-14.511c-3.096,-5.03 -6.095,-11.125 -8.997,-18.283c-2.902,-7.159 -5.32,-15.575 -7.255,-25.249c-6.578,18.187 -16.252,32.214 -29.022,42.081c-12.77,9.868 -29.602,14.801 -50.498,14.801c-18.961,0 -35.503,-3.482 -49.627,-10.448c-14.124,-6.965 -25.829,-16.735 -35.116,-29.312c-9.287,-12.576 -16.156,-27.764 -20.606,-45.564c-4.45,-17.8 -6.675,-37.535 -6.675,-59.204c0,-22.057 3.579,-42.565 10.738,-61.526c7.159,-18.961 17.123,-35.31 29.893,-49.047c12.769,-13.737 28.054,-24.475 45.854,-32.214c17.8,-7.739 37.535,-11.609 59.204,-11.609c11.996,0 24.766,0.871 38.309,2.612c13.544,1.741 25.926,3.676 37.148,5.804c11.222,2.129 20.605,4.063 28.151,5.805c7.546,1.741 11.512,2.612 11.899,2.612l0,138.724Zm-134.081,76.037c5.805,0 11.319,-2.515 16.543,-7.546c5.224,-5.03 9.771,-11.802 13.64,-20.315c3.87,-8.513 6.869,-18.284 8.997,-29.312c2.128,-11.028 3.192,-22.734 3.192,-35.116l0,-67.331c-2.708,-1.161 -6.481,-2.225 -11.318,-3.192c-4.837,-0.968 -8.997,-1.451 -12.48,-1.451c-9.287,0 -17.026,2.031 -23.217,6.094c-6.191,4.063 -11.125,9.674 -14.801,16.833c-3.676,7.158 -6.288,15.768 -7.836,25.829c-1.548,10.061 -2.322,20.896 -2.322,32.505c0,10.834 0.194,21.185 0.581,31.053c0.387,9.867 1.644,18.671 3.773,26.41c2.128,7.739 5.127,13.93 8.996,18.574c3.87,4.643 9.287,6.965 16.252,6.965Z" style="fill:#dc002c;fill-rule:nonzero;"/><path d="M4397.11,9242.72l47.595,0l9.868,-59.785l79.519,-17.413l0,77.198l68.492,0l-11.029,67.33l-57.463,0l0,129.437c0,17.027 8.9,25.54 26.7,25.54c9.674,0 18.961,-0.968 27.861,-2.903c4.644,-1.16 9.287,-2.321 13.931,-3.482l15.671,61.526c-7.739,2.709 -18.477,5.708 -32.214,8.997c-13.737,3.289 -30.473,4.933 -50.207,4.933c-29.022,0 -51.756,-5.997 -68.202,-17.993c-16.445,-11.996 -24.668,-32.311 -24.668,-60.946l0,-145.109l-45.854,0l0,-67.33Z" style="fill:#dc002c;fill-rule:nonzero;"/><path d="M4722.73,9534.1c-22.057,0 -39.857,-5.707 -53.4,-17.122c-13.544,-11.416 -20.315,-27.571 -20.315,-48.467l0,-228.111l91.708,0l0,201.992c0,8.9 1.355,14.897 4.063,17.993c2.709,3.096 6.772,4.644 12.19,4.644c3.095,0 6.191,-0.291 9.287,-0.871c3.095,-0.58 5.03,-1.064 5.804,-1.451l8.126,57.463c-0.387,0.387 -2.128,1.258 -5.224,2.612c-3.096,1.354 -7.159,2.902 -12.189,4.643c-5.031,1.742 -11.028,3.29 -17.994,4.644c-6.965,1.354 -14.317,2.031 -22.056,2.031Zm-26.7,-433.585c16.252,0 28.635,4.837 37.148,14.511c8.513,9.674 12.769,21.863 12.769,36.567c0,15.092 -4.353,27.668 -13.06,37.729c-8.706,10.061 -21.766,15.091 -39.179,15.091c-16.252,0 -28.731,-4.934 -37.438,-14.801c-8.707,-9.867 -13.06,-21.573 -13.06,-35.116c0,-15.479 4.45,-28.345 13.35,-38.599c8.9,-10.255 22.057,-15.382 39.47,-15.382Z" style="fill:#dc002c;fill-rule:nonzero;"/><path d="M4937.49,9234.59c46.048,0 79.616,13.156 100.706,39.469c21.089,26.313 31.633,62.687 31.633,109.122c0,22.057 -2.805,42.469 -8.416,61.236c-5.611,18.768 -14.124,35.02 -25.539,48.757c-11.415,13.737 -25.733,24.572 -42.952,32.504c-17.22,7.933 -37.245,11.899 -60.076,11.899c-23.217,0 -43.242,-3.386 -60.075,-10.158c-16.832,-6.771 -30.569,-16.542 -41.211,-29.312c-10.641,-12.769 -18.573,-28.344 -23.797,-46.725c-5.224,-18.38 -7.836,-38.986 -7.836,-61.816c0,-22.057 2.805,-42.565 8.416,-61.526c5.611,-18.961 14.124,-35.31 25.539,-49.047c11.415,-13.737 25.733,-24.572 42.952,-32.504c17.22,-7.933 37.439,-11.899 60.656,-11.899Zm-5.224,69.072c-6.965,0 -12.77,2.031 -17.413,6.094c-4.643,4.063 -8.223,9.674 -10.738,16.833c-2.515,7.158 -4.257,15.575 -5.224,25.249c-0.967,9.674 -1.451,20.121 -1.451,31.343c0,11.609 0.58,22.637 1.741,33.085c1.161,10.448 3.193,19.541 6.095,27.281c2.902,7.739 7.062,13.833 12.479,18.283c5.418,4.45 12.189,6.675 20.315,6.675c6.966,0 12.77,-2.128 17.413,-6.385c4.644,-4.256 8.223,-9.964 10.739,-17.122c2.515,-7.159 4.256,-15.575 5.223,-25.249c0.968,-9.674 1.452,-19.929 1.452,-30.763c0,-11.996 -0.581,-23.121 -1.742,-33.375c-1.161,-10.255 -3.192,-19.252 -6.094,-26.991c-2.903,-7.739 -7.062,-13.833 -12.48,-18.283c-5.417,-4.45 -12.189,-6.675 -20.315,-6.675Z" style="fill:#dc002c;fill-rule:nonzero;"/><path d="M5286.91,9531.78l0,-181.096c0,-13.544 -1.644,-24.475 -4.934,-32.795c-3.289,-8.319 -9.383,-12.479 -18.283,-12.479c-10.835,0 -20.896,7.062 -30.183,21.186c-9.287,14.124 -13.93,33.955 -13.93,59.494l0,145.69l-91.709,0l0,-150.914c0,-23.217 -1.645,-42.468 -4.934,-57.753c-3.289,-15.285 -7.062,-27.764 -11.318,-37.438c-4.644,-10.835 -9.868,-19.541 -15.672,-26.12l73.715,-23.217c3.483,3.87 6.965,8.32 10.448,13.35c3.096,4.257 6.095,9.771 8.997,16.542c2.902,6.772 5.32,14.415 7.255,22.928c10.061,-18.187 23.895,-31.537 41.501,-40.05c17.607,-8.513 36.858,-12.77 57.754,-12.77c30.182,0 51.658,9.19 64.428,27.571c12.77,18.38 19.154,42.855 19.154,73.425l0,194.446l-92.289,0Z" style="fill:#dc002c;fill-rule:nonzero;"/><path d="M5792.47,9536.42l-3.482,-4.063c-2.322,-2.322 -5.031,-5.998 -8.126,-11.028c-3.096,-5.031 -6.192,-11.125 -9.287,-18.284c-3.096,-7.159 -5.418,-15.381 -6.966,-24.668c-6.578,18.187 -16.252,32.214 -29.021,42.081c-12.77,9.868 -29.603,14.801 -50.498,14.801c-18.961,0 -35.503,-3.482 -49.627,-10.448c-14.124,-6.965 -25.83,-16.735 -35.117,-29.312c-9.287,-12.576 -16.155,-27.764 -20.605,-45.564c-4.45,-17.8 -6.675,-37.535 -6.675,-59.204c0,-22.057 3.579,-42.565 10.738,-61.526c7.159,-18.961 17.123,-35.31 29.892,-49.047c12.77,-13.737 28.055,-24.475 45.855,-32.214c17.8,-7.739 37.534,-11.609 59.204,-11.609c3.483,0 7.256,0.194 11.319,0.581c4.063,0.386 8.222,0.773 12.479,1.16l0,-126.535l91.709,15.092l0,265.259c0,22.83 1.644,41.985 4.933,57.463c3.29,15.478 6.869,27.958 10.738,37.438c3.87,9.48 7.546,16.155 11.029,20.025l5.224,6.385l-73.716,23.217Zm-92.289,-68.491c5.804,0 11.319,-2.515 16.543,-7.546c5.223,-5.03 9.77,-11.802 13.64,-20.315c3.869,-8.513 6.868,-18.284 8.997,-29.312c2.128,-11.028 3.192,-22.734 3.192,-35.116l0,-67.331c-2.709,-1.161 -6.482,-2.225 -11.319,-3.192c-4.837,-0.968 -8.996,-1.451 -12.479,-1.451c-9.287,0 -17.026,2.031 -23.217,6.094c-6.192,4.063 -11.125,9.674 -14.801,16.833c-3.677,7.158 -6.288,15.768 -7.836,25.829c-1.548,10.061 -2.322,20.896 -2.322,32.505c0,10.834 0.193,21.185 0.58,31.053c0.387,9.867 1.645,18.671 3.773,26.41c2.128,7.739 5.127,13.93 8.997,18.574c3.87,4.643 9.287,6.965 16.252,6.965Z" style="fill:#dc002c;fill-rule:nonzero;"/><path d="M5888.83,9394.22c0,-25.927 3.772,-48.854 11.318,-68.782c7.546,-19.928 17.994,-36.568 31.344,-49.918c13.35,-13.35 28.925,-23.507 46.725,-30.472c17.8,-6.966 37.148,-10.448 58.043,-10.448c18.187,0 33.666,2.225 46.435,6.675c12.77,4.45 23.218,10.641 31.344,18.574c8.126,7.932 14.124,17.219 17.993,27.861c3.87,10.641 5.804,22.153 5.804,34.536c0,13.93 -3.482,27.086 -10.447,39.469c-6.966,12.383 -16.93,23.314 -29.893,32.795c-12.963,9.48 -28.635,17.316 -47.015,23.507c-18.381,6.192 -39.179,10.255 -62.397,12.19c2.709,11.608 7.643,20.992 14.801,28.151c7.159,7.158 18.09,10.738 32.795,10.738c8.513,0 17.606,-0.968 27.28,-2.902c9.674,-1.935 18.574,-4.064 26.7,-6.385c9.674,-2.709 19.155,-5.805 28.442,-9.287l17.413,60.365c-10.448,5.03 -21.863,9.48 -34.246,13.35c-10.448,3.096 -22.54,5.998 -36.277,8.707c-13.737,2.708 -28.345,4.063 -43.823,4.063c-23.604,0 -43.823,-3.483 -60.656,-10.448c-16.832,-6.965 -30.569,-16.639 -41.21,-29.022c-10.642,-12.383 -18.381,-27.377 -23.218,-44.984c-4.837,-17.606 -7.255,-37.051 -7.255,-58.333Zm135.822,-94.031c-7.353,0 -13.641,2.128 -18.865,6.385c-5.224,4.256 -9.383,9.867 -12.479,16.832c-3.096,6.966 -5.417,14.705 -6.965,23.218c-1.548,8.513 -2.515,16.832 -2.902,24.959c11.608,-0.387 21.379,-2.129 29.312,-5.224c7.932,-3.096 14.414,-6.966 19.444,-11.609c5.031,-4.644 8.707,-9.674 11.028,-15.091c2.322,-5.418 3.483,-10.448 3.483,-15.092c0,-7.352 -2.031,-13.253 -6.094,-17.703c-4.064,-4.45 -9.384,-6.675 -15.962,-6.675Z" style="fill:#dc002c;fill-rule:nonzero;"/><path d="M6274.24,9235.18c14.704,0 28.344,1.258 40.92,3.773c12.577,2.515 23.702,5.321 33.376,8.416c11.221,3.87 21.476,7.933 30.763,12.189l-29.022,65.009c-3.096,-1.548 -7.062,-3.482 -11.899,-5.804c-4.837,-2.322 -10.061,-4.644 -15.672,-6.965c-5.611,-2.322 -11.512,-4.257 -17.703,-5.805c-6.191,-1.548 -12.189,-2.321 -17.994,-2.321c-6.191,0 -11.415,1.354 -15.671,4.063c-4.257,2.708 -6.385,6.965 -6.385,12.769c0,6.192 3.966,12.286 11.899,18.284c7.932,5.998 18.477,11.705 31.633,17.123c23.218,9.674 41.115,21.186 53.691,34.536c12.576,13.35 18.864,31.246 18.864,53.69c0,12.383 -2.225,24.282 -6.675,35.697c-4.45,11.415 -11.028,21.379 -19.735,29.892c-8.706,8.513 -19.638,15.285 -32.795,20.315c-13.156,5.031 -28.247,7.546 -45.273,7.546c-13.544,0 -26.217,-0.967 -38.019,-2.902c-11.802,-1.935 -22.637,-4.353 -32.504,-7.256c-9.868,-2.902 -18.671,-5.804 -26.41,-8.706c-7.739,-2.902 -13.931,-5.514 -18.574,-7.836l30.183,-66.75c1.934,0.774 5.32,2.515 10.157,5.224c4.837,2.709 10.448,5.417 16.833,8.126c6.385,2.709 13.156,5.127 20.315,7.255c7.159,2.129 14.027,3.193 20.605,3.193c8.127,0 14.802,-1.548 20.025,-4.644c5.224,-3.095 7.836,-7.739 7.836,-13.93c0,-7.352 -3.192,-13.931 -9.577,-19.735c-6.385,-5.804 -14.607,-10.641 -24.668,-14.511c-29.022,-11.609 -49.821,-24.668 -62.397,-39.179c-12.576,-14.511 -18.864,-32.601 -18.864,-54.271c0,-12.383 2.321,-23.798 6.965,-34.246c4.643,-10.447 11.415,-19.541 20.315,-27.28c8.9,-7.739 19.638,-13.834 32.214,-18.284c12.576,-4.45 26.991,-6.675 43.243,-6.675Z" style="fill:#dc002c;fill-rule:nonzero;"/><path d="M6560.39,9394.22c0,-25.927 3.773,-48.854 11.319,-68.782c7.546,-19.928 17.993,-36.568 31.343,-49.918c13.35,-13.35 28.926,-23.507 46.726,-30.472c17.8,-6.966 37.147,-10.448 58.043,-10.448c18.187,0 33.665,2.225 46.435,6.675c12.769,4.45 23.217,10.641 31.343,18.574c8.127,7.932 14.124,17.219 17.994,27.861c3.869,10.641 5.804,22.153 5.804,34.536c0,13.93 -3.482,27.086 -10.448,39.469c-6.965,12.383 -16.929,23.314 -29.892,32.795c-12.963,9.48 -28.635,17.316 -47.015,23.507c-18.381,6.192 -39.18,10.255 -62.397,12.19c2.709,11.608 7.642,20.992 14.801,28.151c7.159,7.158 18.09,10.738 32.795,10.738c8.513,0 17.606,-0.968 27.28,-2.902c9.674,-1.935 18.574,-4.064 26.7,-6.385c9.674,-2.709 19.154,-5.805 28.441,-9.287l17.414,60.365c-10.448,5.03 -21.864,9.48 -34.246,13.35c-10.448,3.096 -22.54,5.998 -36.277,8.707c-13.737,2.708 -28.345,4.063 -43.823,4.063c-23.605,0 -43.823,-3.483 -60.656,-10.448c-16.832,-6.965 -30.569,-16.639 -41.211,-29.022c-10.641,-12.383 -18.38,-27.377 -23.217,-44.984c-4.837,-17.606 -7.256,-37.051 -7.256,-58.333Zm135.822,-94.031c-7.352,0 -13.64,2.128 -18.864,6.385c-5.224,4.256 -9.383,9.867 -12.479,16.832c-3.096,6.966 -5.418,14.705 -6.965,23.218c-1.548,8.513 -2.516,16.832 -2.903,24.959c11.609,-0.387 21.38,-2.129 29.312,-5.224c7.933,-3.096 14.415,-6.966 19.445,-11.609c5.03,-4.644 8.707,-9.674 11.028,-15.091c2.322,-5.418 3.483,-10.448 3.483,-15.092c0,-7.352 -2.032,-13.253 -6.095,-17.703c-4.063,-4.45 -9.383,-6.675 -15.962,-6.675Zm-37.728,-132.92l105.639,-124.213l60.366,57.463c-12.383,15.091 -25.927,29.215 -40.631,42.372c-14.704,13.156 -28.441,24.572 -41.211,34.246c-15.091,11.608 -30.182,22.056 -45.274,31.343l-38.889,-41.211Z" style="fill:#dc002c;fill-rule:nonzero;"/></g><g><g><path d="M5405.6,7281.13l294.578,0l496.974,1356.66l-334.656,0l-100.197,-326.641l-438.86,0l-104.204,326.641l-328.644,0l515.009,-1356.66Zm282.554,785.54c-14.027,-38.075 -26.051,-80.157 -40.078,-120.236c-14.028,-44.086 -28.055,-84.165 -40.079,-124.243c-14.027,-40.079 -26.051,-78.153 -36.071,-114.224c-10.019,-34.067 -20.039,-64.126 -28.055,-88.173c-8.015,26.051 -18.035,56.11 -28.055,90.177c-10.019,36.07 -22.043,74.145 -34.066,114.224c-14.028,40.078 -26.052,80.157 -40.079,122.239c-14.028,42.083 -28.055,82.161 -42.083,120.236l288.566,0Z" style="fill:#dc002c;fill-rule:nonzero;"/></g><g><path d="M6728.2,7263.09c48.094,0 94.185,4.008 140.275,12.023c44.086,8.016 86.169,18.036 124.244,30.059c38.074,12.024 74.145,26.051 106.208,40.079c30.059,16.031 58.114,32.063 80.157,48.094l-116.228,220.432c-16.031,-8.016 -36.071,-18.035 -58.114,-32.063c-22.043,-12.023 -46.09,-24.047 -72.141,-36.07c-26.051,-12.024 -54.106,-22.044 -80.157,-30.059c-28.055,-8.016 -54.106,-12.024 -80.158,-12.024c-46.09,0 -82.161,10.02 -104.204,28.055c-22.043,20.039 -34.067,44.087 -34.067,74.145c2.004,22.044 6.012,42.083 16.032,60.118c10.019,18.036 24.047,34.067 42.082,50.099c18.036,18.035 42.083,34.066 72.142,50.098c30.059,16.031 66.129,32.063 108.212,50.098c54.106,22.043 100.196,46.09 140.275,70.137c40.078,24.048 74.145,52.103 100.196,82.161c24.047,30.059 44.087,66.13 58.114,104.205c14.028,38.074 20.039,84.165 20.039,134.263c0,62.122 -10.019,118.232 -32.062,172.338c-24.048,54.106 -54.106,102.2 -96.189,142.279c-42.082,40.078 -92.181,72.141 -150.295,94.184c-58.113,22.044 -124.243,34.067 -198.388,34.067c-52.103,0 -102.201,-4.008 -148.291,-14.027c-48.094,-10.02 -92.181,-22.044 -132.259,-36.071c-40.079,-14.028 -76.15,-30.059 -110.216,-48.094c-34.067,-16.032 -62.122,-32.063 -86.169,-46.091l108.212,-236.463c10.019,6.012 26.051,18.035 52.102,32.063c26.051,16.031 54.106,32.062 86.169,46.09c32.063,16.031 64.125,30.059 98.192,42.082c34.067,12.024 64.126,18.036 90.177,18.036c56.11,0 98.193,-14.028 124.244,-40.079c26.051,-26.051 38.074,-62.122 38.074,-110.216c0,-48.094 -16.031,-84.165 -48.094,-110.216c-34.067,-24.047 -80.157,-48.094 -140.275,-72.141c-58.114,-24.047 -110.216,-50.099 -156.306,-76.15c-46.091,-26.051 -84.165,-56.11 -114.224,-90.176c-32.063,-34.067 -56.11,-70.138 -72.142,-112.22c-18.035,-42.083 -26.051,-90.177 -26.051,-144.283c0,-60.118 12.024,-114.224 38.075,-162.318c24.047,-46.091 56.11,-88.173 98.192,-120.236c42.083,-36.071 90.177,-62.122 144.283,-80.157c54.106,-18.036 110.216,-26.051 170.334,-26.051Z" style="fill:#dc002c;fill-rule:nonzero;"/></g><g><path d="M7782.25,7263.09c48.094,0 94.185,4.008 140.275,12.023c44.086,8.016 86.169,18.036 124.244,30.059c38.074,12.024 74.145,26.051 106.208,40.079c30.059,16.031 58.114,32.063 80.157,48.094l-116.228,220.432c-16.031,-8.016 -36.071,-18.035 -58.114,-32.063c-22.043,-12.023 -46.09,-24.047 -72.141,-36.07c-26.051,-12.024 -54.106,-22.044 -80.157,-30.059c-28.055,-8.016 -54.106,-12.024 -80.157,-12.024c-46.091,0 -82.162,10.02 -104.205,28.055c-22.043,20.039 -34.067,44.087 -34.067,74.145c2.004,22.044 6.012,42.083 16.032,60.118c10.02,18.036 24.047,34.067 42.082,50.099c18.036,18.035 42.083,34.066 72.142,50.098c30.059,16.031 66.129,32.063 108.212,50.098c54.106,22.043 100.196,46.09 140.275,70.137c40.078,24.048 74.145,52.103 100.196,82.161c24.047,30.059 44.087,66.13 58.114,104.205c14.028,38.074 20.04,84.165 20.04,134.263c0,62.122 -10.02,118.232 -32.063,172.338c-24.047,54.106 -54.106,102.2 -96.189,142.279c-42.082,40.078 -92.181,72.141 -150.295,94.184c-58.113,22.044 -124.243,34.067 -198.388,34.067c-52.103,0 -102.201,-4.008 -148.291,-14.027c-48.094,-10.02 -92.181,-22.044 -132.259,-36.071c-40.079,-14.028 -76.15,-30.059 -110.216,-48.094c-34.067,-16.032 -62.122,-32.063 -86.169,-46.091l108.212,-236.463c10.019,6.012 26.051,18.035 52.102,32.063c26.051,16.031 54.106,32.062 86.169,46.09c32.063,16.031 64.126,30.059 98.192,42.082c34.067,12.024 64.126,18.036 90.177,18.036c56.11,0 98.193,-14.028 124.244,-40.079c26.051,-26.051 38.074,-62.122 38.074,-110.216c0,-48.094 -16.031,-84.165 -48.094,-110.216c-34.067,-24.047 -80.157,-48.094 -140.275,-72.141c-58.114,-24.047 -110.216,-50.099 -156.306,-76.15c-46.091,-26.051 -84.165,-56.11 -114.224,-90.176c-32.063,-34.067 -56.11,-70.138 -72.142,-112.22c-18.035,-42.083 -26.051,-90.177 -26.051,-144.283c0,-60.118 12.024,-114.224 38.075,-162.318c24.047,-46.091 56.11,-88.173 98.192,-120.236c42.083,-36.071 90.177,-62.122 144.283,-80.157c54.106,-18.036 110.216,-26.051 170.334,-26.051Z" style="fill:#dc002c;fill-rule:nonzero;"/></g><g><path d="M8425.5,7281.13l863.693,0l0,242.475l-533.045,0l0,290.57l442.868,0l-38.074,238.467l-404.794,0l0,342.672l561.1,0l0,242.476l-891.748,0l0,-1356.66Z" style="fill:#dc002c;fill-rule:nonzero;"/></g><g><path d="M9960.54,8876.26c42.083,-24.047 78.153,-48.094 108.212,-72.141c28.055,-24.048 52.102,-50.099 70.138,-80.158c16.031,-30.058 30.059,-62.121 38.074,-98.192c8.016,-34.067 12.024,-74.145 12.024,-118.232l0,-14.027c-26.051,50.098 -66.13,90.176 -116.228,116.228c-50.098,28.055 -110.216,42.082 -180.353,42.082c-78.154,0 -148.291,-16.031 -210.413,-46.09c-60.118,-30.059 -110.216,-76.15 -150.295,-134.264c-42.082,-58.113 -72.141,-128.251 -94.184,-212.416c-22.043,-82.161 -32.063,-176.346 -32.063,-282.554c0,-102.2 12.024,-198.389 38.075,-284.558c24.047,-88.172 62.121,-164.322 112.22,-228.447c50.098,-62.122 116.227,-112.22 192.377,-148.291c80.157,-34.067 172.338,-52.102 278.546,-52.102c78.153,0 154.302,14.027 228.448,44.086c72.141,30.059 132.259,76.149 180.353,134.263l-154.302,188.37c-38.075,-38.075 -80.157,-68.134 -124.244,-94.185c-44.086,-26.051 -88.173,-38.075 -130.255,-38.075c-94.185,0 -162.318,40.079 -202.397,122.24c-42.082,82.161 -62.122,194.381 -62.122,336.66c0,70.137 4.008,132.259 12.024,188.369c8.016,58.114 20.039,106.208 36.071,146.287c18.035,40.078 38.074,70.137 64.125,92.181c24.047,22.043 54.106,32.062 88.173,32.062c26.051,0 52.102,-10.019 74.145,-30.058c24.048,-20.04 46.091,-46.091 64.126,-78.154c18.035,-30.059 32.063,-66.129 42.083,-104.204c8.015,-38.075 14.027,-78.153 14.027,-116.228l0,-150.294l316.621,0l0,639.253c0,82.161 -12.024,150.294 -34.067,204.4c-22.043,56.11 -52.102,102.201 -90.177,140.275c-36.07,38.075 -78.153,70.138 -124.243,96.189c-48.095,26.051 -96.189,48.094 -144.283,68.134l-120.236,-208.409Z" style="fill:#dc002c;fill-rule:nonzero;"/></g><g><path d="M11551.7,7281.13l-42.082,242.475l-312.613,0l0,1114.18l-330.648,0l0,-1114.18l-322.633,0l0,-242.475l1007.98,0Z" style="fill:#dc002c;fill-rule:nonzero;"/></g><g><path d="M13018.5,7281.13c12.023,0 36.07,0 72.141,-2.004l120.236,0c44.086,0 86.169,0 128.251,-2.004l96.189,0c170.334,0 298.585,32.063 384.754,98.193c86.169,66.129 128.252,162.318 128.252,290.569c0,86.169 -20.04,156.307 -62.122,210.413c-42.083,56.11 -98.193,100.196 -168.33,130.255c40.078,22.043 76.149,52.102 106.208,90.177c30.059,38.075 60.118,82.161 88.173,134.263c28.055,54.106 56.11,114.224 86.169,182.358c28.055,68.133 60.118,142.278 94.184,224.44l-354.695,0c-42.082,-94.185 -78.153,-176.346 -108.212,-248.488c-30.059,-70.137 -56.11,-130.255 -82.161,-180.353c-26.051,-48.094 -50.098,-84.165 -74.146,-110.216c-26.051,-24.047 -56.109,-36.071 -90.176,-36.071l-34.067,0l0,575.128l-330.648,0l0,-1356.66Zm330.648,575.127l84.165,0c46.09,0 86.169,-14.027 120.236,-42.082c32.062,-30.059 48.094,-74.145 48.094,-136.267c0,-26.051 -2.004,-48.094 -10.02,-72.142c-6.012,-22.043 -14.027,-40.078 -28.055,-58.113c-14.027,-16.032 -32.063,-30.059 -54.106,-40.079c-24.047,-10.02 -52.102,-14.028 -86.169,-14.028l-74.145,0l0,362.711Z" style="fill:#dc002c;fill-rule:nonzero;"/></g><g><path d="M11937,7367.8l184.272,-137.967l-74.262,-217.93l188.183,132.667l184.348,-137.993l-68.018,219.97l188.182,132.667l-230.25,3.286l-68.019,219.97l-74.261,-217.93l-230.175,3.26Z" style="fill:#dc002c;"/></g><g><path d="M12535.5,7532.79c189.208,105.071 317.184,306.359 317.184,537.185c0,339.502 -276.808,615.068 -617.839,615.068c-341.031,0 -617.839,-275.566 -617.839,-615.068c0,-230.826 127.975,-432.114 317.184,-537.185c-118.688,89.087 -195.269,229.573 -195.269,387.532c0,269.141 222.186,487.667 495.924,487.667c273.738,0 495.924,-218.526 495.924,-487.667c0,-157.959 -76.581,-298.445 -195.269,-387.532Z" style="fill:#dc002c;"/></g></g><path d="M4685,8406.81l0,71.373c0,170.033 -138.028,308.067 -308.049,308.067l-1494.93,0c-170.025,0 -308.062,-138.034 -308.062,-308.067l0,-1095.33c0,-170.016 138.037,-308.05 308.062,-308.05l1494.93,0c170.021,0 308.049,138.034 308.049,308.05l0,949.482l0.011,0.013l0,74.46l-0.011,0.001Zm0,-74.474l-1.09,-1.302l-8.012,-5.375l-2.716,-3.159l-6.868,-12.486l-1.98,-2.423l-5.432,-4.789l-1.358,-1.615l-2.301,-3.545l-1.88,-1.301l-1.694,0l-3.016,1.508l-1.272,0.107l-17.246,-5.189l-6.362,-0.686l-13.158,-3.959l-2.894,-8.956l5.232,-25.094l1.229,-14.18l1.401,-6.797l2.794,-7.04l0.015,0l4.345,-4.539l25.766,-13.172l5.553,-0.643l5.668,0l6.847,-1.022l5.018,-3.738l-3.624,-4.367l-11.993,-6.662l-6.397,-5.01l-3.116,-3.23l-3.953,-7.419l-2.394,-0.415l-2.887,1.237l-3.553,0.593l-14.623,-5.775l-0.307,-10.571l10.256,-25.18l0.929,-6.575l7.569,-23.157l-1.501,-2.53l-11.857,0l-6.082,1.315l-10.943,6.175l-5.882,2.13l-5.289,0.536l-6.44,-0.314l-6.253,-1.237l-4.696,-2.401l-4.825,-5.168l-16.731,-23.757l-2.152,-4.582l-1.365,-5.181l-0.986,-6.583l-0.157,-6.425l10.956,-77.927l-1.315,-6.189l-5.389,0.371l-1.2,-0.371l-1.194,-2.652l0.858,-1.015l1.379,-0.386l0.472,-0.736l-0.443,-1.508l-0.665,-5.068l-1.058,-1.665l-1.637,-0.364l-1.615,-0.115l-0.958,-0.629l-1.057,-2.308l-0.901,-2.966l0.236,-2.523l6.161,-2.445l3.552,-2.744l1.101,-2.809l-3.638,-1.351l-2.745,-3.138l3.081,-7.304l5.81,-7.819l5.389,-4.982l14.652,-5.46l6.612,-3.767l5.496,-7.104l0.965,-4.16l1.465,-3.96l2.123,-3.537l2.93,-3.252l6.232,-14.023l1.566,-6.683l-0.586,-7.519l-1.895,-6.611l-2.966,-7.312l-4.252,-6.189l-5.582,-3.259l-15.631,-0.687l-7.483,-1.408l-5.582,-3.888l-1.551,-3.738l-0.343,-7.726l-0.951,-3.545l-2.866,-4.467l-1.923,-0.7l-2.437,1.501l-4.446,1.858l-6.611,1.301l-6.204,-0.115l-5.267,-2.716l-7.183,-13.508l-8.784,-12.072l-3.188,-7.511l-4.481,-57.536l-1.287,-5.189l-7.583,-2.966l0.615,-5.975l6.018,-16.238l2.037,-2.245l1.694,-2.616l0.65,-5.389l-0.414,-30.04l-1.73,-6.618l-4.446,-6.683l-5.968,-5.596l-6.339,-3.252l-3.438,0.107l-5.546,3.045l-2.831,0.429l-5.339,-1.865l-2.615,-0.379l-3.045,0.707l-5.839,0.193l-5.754,-1.815l-4.81,0l-7.426,15.631l-2.859,4.445l-5.182,3.574l-4.617,1.43l-5.096,0.593l-5.182,-0.207l-4.831,-0.701l-5.697,0.486l-4.945,2.673l-4.539,1.287l-4.374,-3.038l-1.301,-4.56l1.101,-5.067l2.358,-4.903l2.552,-3.638l13.287,-13.387l3.016,-5.775l0.214,-3.352l-0.736,-2.78l0.093,-2.816l2.652,-3.531l2.33,-0.944l5.839,-0.071l2.537,-1.337l2.445,-4.588l1.643,-10.342l3.474,-5.075l2.08,-1.215l5.903,-2.516l2.431,-1.658l1.029,-0.271l2.859,-0.315l0.95,-0.636l0.515,-2.094l-0.622,-1.751l-0.908,-1.401l-0.221,-1.108l3.009,-6.518l2.709,-2.13l11.106,2.552l5.089,0.593l5.811,-0.315l5.253,-1.829l3.367,-3.838l1.615,-7.527l-2.945,-1.315l-5.253,0.844l-5.282,-0.951l-2.344,-4.345l3.452,-3.874l5.968,-2.738l5.182,-1.329l-6.411,-5.375l-8.656,-4.059l-17.36,-5.282l-7.962,-0.286l-3.388,-1.229l-2.287,-4.26l-2.423,-11.579l-1.608,-3.63l-7.369,5.767l-7.769,-0.493l-15.681,-7.09l-3.224,-4.174l-3.18,-5.603l-2.387,-5.868l-0.973,-5.289l-6.361,-21.013l-3.923,-2.723l-3.996,1.022l-4.631,2.123l-5.954,0.814l-5.167,-1.722l-4.746,-2.873l-4.839,-2.244l-5.367,0.421l14.43,-74.488l-0.236,-3.467l-1.565,-2.837l-1.937,-2.838l-1.415,-3.137l-0.436,-6.304l0.279,-5.489l-1.251,-4.968l-5.225,-4.574l-5.975,-1.015l-6.568,0.736l-6.354,-0.328l-5.289,-4.36l-1.208,-5.554l1.251,-6.296l4.31,-11.479l0.271,-6.611l-2.266,-6.404l-3.759,-5.182l-4.346,-2.416l-5.639,2.237l-3.488,0.179l-2.094,-3.316l-0.979,-2.988l-2.809,-4.638l-0.95,-2.845l0.493,-7.726l3.052,-6.182l3.773,-5.768l2.595,-6.504l-0.458,-6.511l-3.223,-6.469l-5.16,-5.489l-44.113,-22.842l-12.129,-4.06l-21.978,-4.689l-3.731,0.308l-2.144,1.815l-2.208,1.229l-4.06,-1.493l-3.831,-2.252l-1.665,-0.207l-1.987,0.329l-4.782,3.43l-13.587,3.345l-4.145,5.175l1.508,3.045l4.167,4.974l5.203,4.989l7.905,4.231l0.793,2.137l0.136,2.652l1.394,2.737l2.144,1.33l4.846,1.022l1.622,1.429l0.193,3.738l-1.272,5.596l-2.559,4.546l-3.788,1.122l0.887,6.89l-1.423,3.874l-6.718,6.683l-17.647,-3.038l-4.953,0.693l-11.721,5.604l-4.689,3.252l-5.668,5.067l-32.341,10.857l-9.177,5.903l-4.36,4.653l-2.037,4.475l-0.407,4.967l0.615,6.082l-1.366,3.681l-3.595,5.067l-6.94,7.412l-16.009,-0.307l-5.168,-1.716l-2.93,-1.758l-4.667,-3.631l-3.059,-1.222l-2.016,0l-5.875,0.915l-2.752,0l-5.21,-2.523l-9.899,-7.933l-5.26,-1.408l-5.761,-1.015l-10.035,-5.275l-5.475,-1.765l-3.495,-1.601l-5.875,-4.582l-3.488,-1.808l-2.908,-0.708l-4.796,-0.214l-2.952,-0.9l-2.28,-1.437l-3.902,-3.352l-2.824,-1.301l-2.058,-0.307l-7.033,0.307l-5.625,-1.108l-10.07,-4.81l-9.485,-1.808l-1.808,-1.83l-1.401,-1.915l-2.294,-1.122l-10.928,4.367l-1.737,3.43l-0.743,-0.093l-0.822,-1.615l-2.051,-1.551l-0.572,0.643l-1.23,2.738l-2.73,1.529l-2.623,0.208l-1.622,1.086l0.207,4.188l-4.274,-1.429l-1.901,-1.015l-1.894,-1.53l-3.767,2.545l-9.885,8.233l-2.008,2.323l-2.802,4.267l-13.744,-1.115l-5.203,1.93l-0.293,2.716l2.359,5.889l-1.022,1.122l-2.695,1.208l-0.086,2.845l0.786,3.066l-0.057,2.094l-5.839,4.181l-5.746,2.766l-3.202,3.531l2.015,6.39l-4.445,1.429l-5.94,3.052l-5.232,3.531l-2.222,2.973l-1.058,4.06l-2.58,5.36l-3.138,4.996l-2.852,2.737l-4.281,2.016l-11.914,0.536l-8.334,-8.655l-11.686,-22.343l-7.69,-7.697l-1.344,-3.152l0.393,-2.323l2.83,-5.189l0.772,-2.623l-1.837,-8.119l-5.181,-4.167l-6.726,-3.252l-6.697,-4.96l-11.55,-18.09l-5.132,-3.738l-7.025,-1.858l-5.725,0.221l-12.508,4.146l-6.697,-0.193l-3.888,0.843l-2.151,2.93l-3.745,12.48l-3.295,3.745l-9.277,6.711l-1.594,1.93l-4.081,6.468l-2.273,1.008l-2.452,0.214l-1.901,0.908l-1.808,8.527l-3.081,5.617l-4.267,4.353l-4.538,1.194l-4.689,0.321l-9.262,3.745l-5.604,0l-5.646,-1.908l-5.904,-3.052l-5.61,-3.738l-4.761,-4.167l-11.642,-15.538l-5.132,-4.167l-17.597,-7.826l-5.41,-4.867l-5.239,-11.757l4.653,-8.534l8.155,-8.527l5.382,-11.571l-0.1,-6.69l-1.894,-11.579l1.229,-6.604l4.467,-2.416l6.94,0.279l5.432,-0.807l0.071,-5.661l-7.933,-0.322l-18.876,-6.818l-9.706,-1.015l-24.758,1.958l-11.95,2.202l-22.128,8.226l-10.857,1.844l-23.521,-1.008l-5.904,-1.329l-17.382,-7.304l-0.393,-0.429l-0.558,-0.265l-1.987,0l-1.25,0.479l-3.181,2.237l-10.957,5.875l-3.816,0.844l-6.104,-0.637l-17.325,-5.76l-7.147,0.2l-5.161,2.516l-9.505,8.741l-10.65,5.889l-48.551,12.694l-4.653,-2.445l-8.169,-12.493l-5.139,-3.645l-12.472,-4.574l-6.039,-1.43l-4.975,-0.171l-4.853,0.9l-5.596,2.237l-8.405,4.56l-2.531,0.794l-4.081,-0.165l-1.05,-1.136l-0.229,-2.016l-1.508,-2.766l-8.105,-9.034l-4.724,-3.838l-5.611,-2.237l-5.918,-0.7l-18.568,1.014l-5.933,-0.736l-1.694,-2.408l-1.243,-2.874l-4.589,-2.194l-8.505,-0.643l-2.759,-1.115l-3.016,-2.723l-0.607,-2.452l0.45,-2.029l0.128,-1.123l-7.147,-6.296l-11.221,-5.761l-10.456,0.1l-4.818,11.686l-0.929,5.553l-3.316,2.938l-4.717,0.314l-5.125,-2.03l-5.575,0.601l-4.988,-0.479l-4.232,-2.237l-3.323,-4.76l-1.272,-5.718l1.022,-4.739l4.281,-9.97l1.093,-5.075l0.322,-5.896l-1.236,-5.475l-3.681,-3.959l-4.396,-0.687l-4.96,0.794l-5.267,0.207l-5.189,-2.773l-2.673,3.252l-2.309,-1.48l-1.887,-0.221l-2.023,0.314l-2.573,0l-3.638,1.122l-1.157,0.179l-1.301,-0.707l-2.752,-2.938l-1.587,-0.693l-2.179,0.064l-4.875,1.43l-2.487,0.428l-2.495,-0.428l-3.566,-2.338l-2.394,-0.693l-2.538,0.207l-8.605,1.809l-1.408,0.529l-0.657,0.793l-0.787,0.707l-1.672,0.115l-1.394,-0.529l-2.48,-1.715l-1.329,-0.594l-13.809,-3.781l-93.036,-3.423l-2.308,19.276l0.5,6.511l2.745,8.005l14.48,18.19l3.259,5.875l0.765,5.074l-1.079,4.961l-5.046,12.064l-0.615,2.452l-0.3,3.781l0.915,8.383l-0.3,3.367l-2.288,5.696l-1.15,7.698l-4.825,7.411l-8.348,3.159l-19.49,0.208l3.716,-6.619l-4.867,-1.393l-7.89,1.922l-5.44,3.252l-6.947,5.654l-17.489,8.133l-6.261,7.083l-0.729,3.045l-0.021,6.311l-1.201,3.152l2.208,1.115l7.541,1.008l5.832,1.915l5.475,3.366l5.617,5.49l2.888,2.044l7.848,2.723l1.336,1.737l0.729,2.201l1.608,2.773l6.304,6.997l3.402,2.344l4.675,2.03l10.113,1.601l2.744,1.33l3.152,4.774l0.408,5.582l-2.523,11.8l-0.951,12.158l4.389,34.414l-0.05,5.167l-1.501,12.565l-1.494,3.881l-4.574,3.323l-6.947,2.866l-7.384,1.287l-5.76,-0.801l-1.716,-2.137l0.636,-2.222l-0.178,-1.816l-4.16,-1.236l-2.409,-1.394l-0.957,-5.918l-2.523,-1.801l-4.317,0l-0.865,1.53l1.301,3.252l-0.608,6.682l-0.807,2.823l-3.71,5.504l-4.974,3.044l-5.761,0.093l-6.254,-3.137l-2.265,1.715l-12.394,7.619l-5.36,1.93l-12.579,-2.03l-4.546,0.1l-8.62,1.537l-3.995,0.085l-4.703,-1.093l-2.759,-1.651l-2.48,-2.13l-2.508,-1.823l-2.909,-0.521l-6.633,0.943l-24.065,-1.544l-1.629,-0.893l-1.516,-0.222l-3.08,1.651l-2.251,2.502l-3.331,7.004l-1.916,2.873l-3.652,2.938l-52.268,28.503l-11.878,2.144l-23.901,-2.844l-11.893,1.329l-6.968,3.845l-5.168,5.668l-28.51,41.733l-4.346,10.942l-5.703,22.843l-27.574,53.29l-9.656,11.486l-7.962,8.44l0.25,0.994l-0.057,0.808l0.271,0.428l1.301,-0.107l0,1.816l-1.329,1.336l-1.18,1.715l-0.907,1.923l-0.329,2.237l-1.158,1.115l-3.331,0.951l0,34.063l3.438,3.574l5.061,2.938l10.449,1.601l5.189,2.558l3.416,-5.589l0.5,-1.508l-1.229,-3.259l-2.687,-1.744l-2.716,-1.294l-1.251,-1.651l0,-9.927l-0.272,-1.544l-1.358,-2.73l-0.314,-1.816l0.636,-0.843l1.308,-0.272l1.379,0.272l0.594,0.843l2.365,-0.307l5.268,-3.745l5.46,-5.396l2.781,-5.375l-0.944,-4.76l-3.416,-3.881l-9.52,-7.212l4.488,0.1l3.431,1.33l5.961,4.481l2.029,-4.481l1.537,-5.182l-0.786,-5.375l-4.882,-4.967l6.912,-0.407l5.696,16.646l8.963,1.643l8.033,-10.885l1.423,-2.823l2.673,0.793l1.686,3.567l-1.708,5.56l2.873,0l1.973,-0.171l1.444,-0.629l1.401,-1.401l5.103,2.03l4.403,-2.352l3.073,-4.881l1.172,-5.782l0.943,-0.694l4.51,-1.815l1.587,-0.443l2.094,-0.686l1.422,-2.023l0.901,-2.666l0.493,-2.716l2.33,4.653l1.415,1.844l2.145,1.594l-4.61,2.466l-5.361,6.361l-4.846,1.329l-1.229,1.816l-1.258,4.166l-1.951,4.067l-3.402,1.844l-4.689,0.493l-5.389,1.323l-5.032,1.836l-3.623,2.33l-2.316,3.646l-0.865,4.366l1.701,3.467l5.418,0.479l-2.516,2.237l-1.222,2.458l0.221,2.509l1.687,2.666l-1.465,2.616l-0.75,2.938l-0.172,3.044l0.279,3.359l2.108,0l8.262,-3.738l1.401,-1.329l0.729,-2.716l1.823,-2.358l5.296,-3.953l-0.557,3.152l-0.415,1.329l-0.808,1.716l0.458,1.922l-0.272,3.746l-0.936,4.366l-1.387,3.767l-1.922,3.652l-2.652,3.946l-3.345,2.651l-3.845,-0.093l0.622,6.776l2.916,3.952l3.652,3.681l2.802,5.568l3.981,-3.224l3.359,-10.878l3.381,-4.967l12.929,-10.042l3.81,-4.989l2.372,1.437l1.494,0.586l-0.586,0.629l-0.772,2.023l-1.515,2.351l-1.937,1.601l-4.045,2.737l-1.773,1.63l-3.109,4.56l-2.23,4.989l-3.595,11.557l3.895,3.881l2.266,-1.644l1.78,-0.801l1.722,0l2.109,0.415l-3.167,1.186l-2.501,2.138l-1.615,3.151l-0.594,4.575l1.694,3.452l3.981,-1.423l8.091,-7.104l8.112,-9.856l3.953,-6.304l3.337,-9.398l4.017,-7.741l4.839,-7.304l4.195,-3.26l1.151,-1.222l9.649,-6.675l0.622,-4.689l-0.98,-3.152l0.758,-2.301l5.668,-1.651l-2.781,4.26l-1.122,1.336l1.573,3.953l-0.365,4.581l-2.265,3.959l-3.946,1.601l-6.961,13.916l-3.745,12.98l-1.13,1.329l-2.372,1.229l-2.202,2.33l-0.55,4.253l-1.78,0l-3.109,-1.723l-2.294,4.053l-3.502,16.238l-0.336,5.389l2.301,3.767l6.94,0.107l-4.295,3.152l-4.203,4.539l-3.831,3.059l-3.202,-1.015l-3.052,8.005l-0.8,3.988l-0.257,5.067l0.586,5.068l1.436,4.274l1.88,1.201l2.015,-3.646l1.944,0l2.431,3.345l4.431,0.815l4.917,-0.7l3.917,-1.437l3.216,-2.559l2.645,-2.823l3.152,-2.137l4.717,-0.379l-3.024,3.838l-1.408,6.605l-0.15,7.39l0.829,6.125l3.109,6.368l17.811,18.383l1.923,1.193l1.601,1.859l1.294,3.738l0.093,3.681l-2.266,9.341l0.086,6.461l0.9,7.212l2.909,2.93l5.932,-5.668l3.867,1.83l3.752,-0.407l3.917,-1.101l4.331,-0.322l4.038,0.915l3.009,1.43l17.297,15.809l6.318,3.581l2.694,-4.767l0.508,-1.008l1.215,-1.05l1.565,-0.394l1.551,0.586l1.108,2.145l-1.158,1.758l-1.815,1.815l-0.972,2.116l0.929,4.274l1.987,3.238l2.015,2.544l0.937,1.923l3.144,2.351l6.411,-1.93l5.082,-4.888l-0.707,-6.49l4.66,-0.2l4.502,-1.129l3.274,-2.33l1.122,-4.275l4.045,4.796l-4.174,5.289l-7.047,5.153l-4.631,4.768l-0.279,5.81l2.666,5.668l4.967,4.353l6.597,2.037l4.839,-0.694l3.709,-2.122l2.387,-2.995l0.829,-3.209l-0.521,-13.394l0.521,-3.574l1.873,-1.322l7.898,-3.652l3.08,-1.908l5.675,-6.29l3.009,-2.659l4.181,-2.037l-7.74,13.287l-4.882,6.032l-6.225,2.509l-0.836,1.815l3.366,3.46l4.353,1.443l2.151,-3.673l1.708,-0.708l3.838,3.474l3.931,4.745l2.137,3.467l-7.654,-5.282l-7.426,4.367l-4.517,8.491l1.022,7.197l4.374,3.695l3.102,1.015l3.03,0.501l4.31,1.858l5.668,5.961l2.172,1.715l2.395,0.808l4.874,0.214l2.53,1.115l3.495,6.89l1.608,2.144l7.734,4.889l4.21,2.03l4.895,4.653l4.046,4.974l1.708,3.245l1.801,2.023l4.331,1.551l5.211,1.114l6.025,0.394l1.165,0l10.02,-3.867l1.23,-0.908l-0.365,-1.215l4.088,-1.715l5.711,-8.234l3.03,-1.922l0.851,-2.745l0.472,-5.568l1.014,-3.881l2.495,2.137l0.95,9.549l-4.688,9.549l-11.943,14.895l-2.859,8.526l0.765,9.242l5.224,6.911l10.614,1.094l8.863,-4.167l3.066,-6.461l-0.929,-8.112l-3.181,-9.156l1.923,-1.108l0.829,-0.414l1.193,-0.308l0.965,3.252l12.551,14.952l2.844,1.701l3.603,-0.807l5.91,-3.252l-1.551,4.967l-4.074,2.666l-4.231,2.023l-1.908,3.209l-0.836,1.858l-3.931,1.494l-1.287,1.451l-0.379,2.022l0.408,16.639l-0.822,4.453l-4.274,6.926l-3.424,7.569l-5.946,6.832l-9.32,13.294l-1.866,1.222l-1.937,0.394l-1.5,0.843l-0.587,2.394l1.101,1.544l2.33,-0.522l2.08,-1.293l0.379,-0.636l7.969,-2.395l16.989,-9.763l8.763,-3.681l0.843,5.711l2.966,6.382l3.967,5.296l4.017,2.516l5.281,-1.515l3.881,-5.475l6.361,-12.915l1.966,0l-0.536,5.296l-1.351,4.56l-2.173,3.745l-2.737,3.145l-3.023,4.696l-0.051,4.467l1.995,8.72l4.252,5.989l9.728,3.038l10.62,-0.701l6.983,-5.389l2.152,0l-1.902,6.09l-6.303,8.219l-1.959,5.503l0.336,5.482l2.016,5.489l2.801,4.553l2.859,2.559l-2.258,4.317l1.208,1.872l2.959,0.887l6.632,3.245l1.887,-2.738l2.88,-13.401l1.416,-2.937l2.051,-1.33l3.752,-0.1l3.031,-0.479l2.365,-1.236l1.759,-2.152l1.965,0l-0.686,2.852l-0.114,2.759l0.8,6.297l-5.067,-3.953l-1.923,5.354l0.086,8.526l0.815,5.882l0.75,0.529l2.766,1.594l0.608,1.029l-0.286,1.63l-0.658,1.944l-0.722,1.429l-0.3,-0.107l0.893,7.598l-0.593,2.651l-2.458,1.508l2.001,3.038l2.973,1.973l7.004,3.03l2.916,-8.434l1.673,-7.626l2.802,-7.004l6.311,-6.597l-1.466,5.982l-2.258,5.904l0,3.745l-0.879,1.537l-2.53,2.315l-0.501,1.115l3.488,2.952l8.284,0.822l17.475,-0.622l0,1.737l-5.296,1.608l-9.227,-1.808l-5.103,0.2l-4.918,2.73l-3.38,4.389l-5.432,8.92l-7.848,7.997l-0.336,1.115l0.365,1.244l0.071,1.008l-1.108,0.514l-4.274,-0.207l-0.807,0.207l-1.015,4.339l1.2,3.252l2.666,2.458l3.238,1.923l6.626,-4.967l12.572,-3.96l7.504,-1.315l4.524,1.101l10.914,6.797l6.547,2.344l4.353,-0.693l8.734,-6.419l11.085,-5.374l5.218,-3.367l3.909,-4.753l3.788,-9.134l2.38,-4.167l2.781,-3.945l1.622,-0.836l4.503,-0.5l1.05,-0.308l-0.3,-2.33l-3.959,-4.874l-1.251,-2.952l1.315,-8.319l4.553,-8.934l6.025,-4.132l5.596,5.768l6.275,-3.352l5.625,-0.393l5.518,0.393l6.061,-1.022l4.796,-3.945l6.875,-11.379l4.982,-2.515l3.96,-1.13l0.178,-2.222l-1.158,-2.674l-0.071,-2.308l2.316,-3.023l1.622,-1.451l4.846,-2.723l1.229,0.178l1.473,1.001l1.408,0.329l1.122,-1.83l0.743,-1.708l0.965,-1.129l1.987,-1.623l1.336,-1.822l9.792,-31.498l0.043,-1.38l-0.55,-1.343l0.193,-1.208l2.201,-1.022l1.615,-0.501l0.936,-0.5l0.608,-0.7l0.758,-1.344l2.515,-9.549l1.351,-2.423l2.659,-1l2.816,0.378l2.287,-0.207l1.172,-2.523l0.351,-12.286l0.864,-0.908l4.682,-8.205l2.651,-2.658l8.92,-5.497l0.929,-0.171l0.379,-1.015l-0.064,-3.567l0.579,-1.429l1.422,0l1.472,0.193l0.901,-0.693l-0.114,-1.43l-1.101,-3.266l-0.157,-0.908l3.916,-21.492l-0.028,-3.044l-0.365,-1.93l0.193,-1.816l1.723,-2.665l10.363,-5.983l13.03,-4.753l43.198,-9.17l6.654,0.215l5.167,3.359l5.239,4.753l6.826,4.167l5.389,2.008l4.746,1.029l4.895,0.215l63.118,-13.723l1.987,-2.723l1.379,-17.654l183.256,-1.022l7.318,0.715l9.721,2.959l3.988,0.386l3.166,2.752l2.116,6.389l3.895,19.198l2.116,3.352l21.37,13.508l11.786,11.371l10.034,12.758l6.833,13.123l3.374,9.82l1.751,2.73l1.608,1.029l4.667,1.73l1.88,1.508l1.236,2.237l1.944,7.633l2.13,2.831l7.369,5.067l2.795,2.838l1.014,2.451l1.466,7.898l2.051,2.651l2.98,1.437l2.166,1.923l-0.322,4.074l-1.529,7.204l1.208,5.167l3.144,4.367l4.267,4.653l4.525,2.952l0.536,1.623l-3.059,2.151l-2.766,2.516l3.559,1.215l5.089,0.214l1.858,-0.414l2.83,0.414l3.059,0l2.666,0.579l3.452,5.096l3.431,3.03l3.824,2.552l3.016,1.408l12.243,10.664l0.372,3.673l-1.101,3.138l-1.658,3.231l-1.301,3.673l0.007,2.452l1.151,4.953l-0.364,2.63l-2.295,3.345l-3.052,1.944l-3.216,1.429l-2.809,1.923l-5.117,9.027l-3.131,12.594l2.045,10.449l10.327,3.145l11.886,-0.415l11.414,1.115l6.712,1.93l3.43,2.873l0.665,4.324l-4.403,17.075l-1.379,10.042l0.5,21.113l0.472,2.837l2.623,8.22l0.086,1.243l-0.322,3.038l0.15,1.122l0.979,1.108l2.052,1.408l0.814,0.722l11.793,15.652l4.332,3.138l1.572,2.723l12.329,16.546l-2.237,6.196l-3.917,5.597l-5.417,3.738l-6.633,0.521l-5.811,1.094l-5.51,4.681l-4.589,6.097l-4.574,8.419l-4.439,4.174l-2.008,3.51l-0.65,3.781l0.014,3.473l-0.786,2.309l-3.116,0.429l-4.146,24.879l-4.238,6.969l-5.225,6.204l-6.604,9.763l-2.959,9.32l5.761,5.196l2.094,-9.756l5.682,-5.983l8.162,-2.673l9.506,0.522l4.26,1.723l8.241,5.389l3.037,0.586l5.261,-2.023l10.084,-6.69l16.982,-16.531l3.517,-4.489l6.968,-14.08l2.781,-3.967l3.366,-3.144l3.631,-2.359l4.317,-1.594l8.734,-1.229l1.951,0.1l7.84,2.416l2.323,1.315l2.445,0.822l3.309,-0.486l3.123,0.178l3.016,-0.6l5.925,-2.251l2.252,4.924l4.831,-2.773l9.706,-9.549l4.882,-1.508l4.86,0.1l16.346,4.16l4.324,2.409l1.958,4.281l-2.902,13.508l1.23,3.881l3.852,1.301l6.132,-1.037l11.529,-6.782l11.25,-8.741l4.867,-2.502l4.617,-1.544l4.817,-0.6l5.604,-0.114l1.443,-0.222l4.053,-1.115l1.322,0.708l1.351,1.343l1.394,1.816l2.573,-0.701l5.189,-2.737l7.14,-2.023l0.393,-1.958l-0.965,-2.23l-0.022,-2.316l1.98,-2.458l2.052,-2.123l1.4,-2.523l-0.171,-3.574l4.881,0.751l3.024,3.745l1.651,4.939l1.851,13.601l1.329,5.089l2.973,5.067l3.967,4.274l1.129,-0.7l0.058,-4.16l0.722,-5.975l3.509,-3.988l5.668,0l5.767,2.651l3.724,3.731l1.565,6.211l-2.372,3.467l-3.789,2.608l-2.708,3.681l-0.386,5.275l2.558,0.793l4.325,-0.993l4.96,-0.108l2.308,0.308l2.445,-0.308l2.137,-1.136l1.386,-1.794l2.051,-2.359l2.33,1.609l3.71,5.217l14.409,6.075l5.053,3.545l2.044,2.23l1.515,0.808l-3.559,2.137l-1.187,0.522l-1.922,1.015l-1.787,1.393l-3.123,3.267l2.637,2.444l1.479,3.038l1.101,3.259l1.615,2.823l1.401,1.229l0.443,1.322l-0.464,1.301l-1.38,1.337l-2.837,4.581l-1.844,8.205l0.5,7.705l4.181,3.045l6.983,1.436l2.845,1.494l0.972,3.481l0,3.345l5.239,20.912l-0.601,2.945l-3.123,5.182l-0.422,3.352l3.467,-4.16l3.052,-2.458l3.044,0.336l3.367,3.938l1.486,3.152l0.508,2.944l-0.643,2.931l-2.059,2.637l-0.4,0.922l-3.702,12.479l-0.701,12.186l2.795,11.965l6.633,12.093l7.468,9.463l2.495,4.953l7.333,9.327l-3.145,7.412l-2.816,10.263l0.443,9.713l6.097,6.99l-3.138,2.473l-2.466,3.66l-1.672,4.324l-1.408,7.733l-2.051,3.252l-5.146,6.004l1.086,3.952l-2.444,6.168l-6.526,9.778l-5.925,4.452l-2.73,2.731l-1.144,3.537l-0.178,4.003l-0.772,3.309l-1.78,2.93l-3.159,2.795l1.165,0.908l2.38,-1.23l8.362,-8.126l3.209,-4.689l5.575,9.642l3.267,2.866l4.338,-6.311l1.672,-0.5l1.458,-0.879l0.615,-3.174l1.179,-1.015l2.645,-0.529l4.796,-0.1l4.109,0.544l2.08,0.686l2.409,1.551l1.987,2.423l1.994,5.782l1.715,1.922l4.524,0.715l9.792,-2.523l4.439,0.472l4.159,5.832l3.903,18.025l7.133,6.504l1.736,0.436l6.419,-0.336l1.622,1.23l0.15,4.981l2.223,1.701l5.639,2.852l1.022,3.881l-2.687,9.935l3.288,-2.959l3.881,-1.301l4.045,-0.608l3.809,-1.229l3.988,-2.823l3.617,-3.381l3.967,-2.115l4.938,0.414l2.33,-1.336l6.369,-1.901l1.265,-0.129l0.965,-4.574l1.308,-0.393l3.051,1.393l1.53,-6.782l3.681,2.251l5.46,8.612l3.81,-0.378l12.45,-4.818l3.181,-1.829l1.858,-5.64l-1.322,-5.496l-2.109,-5.182l-0.621,-4.953l1.393,-3.059l2.58,-3.952l5.225,-6.504l2.695,-1.744l4.717,-1.301l2.423,-2.23l1.086,-2.566l0.429,-5.867l1.029,-2.623l1.73,-1.423l8.012,-4.86l4.867,-5.182l2.852,-5.289l1.122,-5.696l-0.314,-6.683l-0.772,-1.329l-1.287,-0.429l-1.165,-0.493l-0.322,-1.701l0.515,-1.744l1.701,-2.93l0.429,-1.623l0.679,-9.977l1.994,-5.975l7.526,-9.12l2.28,-5.818l34.271,1.858l-1.544,10.735l1.78,7.941l5.382,6.475l9.256,6.812l8.691,5.503l13.043,-12.1l7.248,-3.746l6.882,7.805l5.354,-0.393l10.22,-3.045l9.635,2.402l10.892,8.548l10.449,4.467l8.248,-9.227l0.151,-2.037l-0.944,-4.681l0.122,-2.137l1.365,-3.331l5.753,-7.219l1.287,-1.186l3.237,-1.873l1.173,-1.115l0.178,-1.186l-0.807,-2.866l0.2,-1.208l9.255,-10.542l1.351,-4.16l1.051,-9.549l1.115,-4.688l1.336,-1.623l1.859,-1.115l1.658,-1.608l0.557,-2.859l-1.465,-3.159l-6.439,-5.553l-2.123,-2.931l0.657,-11.585l14.302,-21.721l2.959,-11.171l0.479,-7.019l-0.543,-2.415l4.381,0.114l12.029,-1.958l2.837,0.95l2.766,2.302l3.502,2.251l5.089,0.4l-1.615,-6.289l-3.481,-6.397l-4.81,-5.289l-5.353,-3.145l-1.601,-4.174l-0.129,-4.367l1.73,-8.712l2.144,-3.56l1.665,-3.952l-0.25,-2.845l-3.559,0l-17.318,5.975l-2.759,0.444l-28.01,-8.642l-23.872,-15.631l0.429,-3.044l4.674,-4.968l0.844,-3.252l-0.672,-5.503l0,-5.375l3.559,-16.431l-0.457,-5.918l-1.501,-3.61l-2.023,-3.259l-1.494,-3.023l-0.028,-3.466l1.601,-2.152l13.937,-10.928l4.038,-0.657l10.285,2.151l5.875,-0.6l9.549,-3.788l5.818,-0.487l2.451,0.801l3.145,2.737l1.873,0.944l2.365,0.186l5.032,-0.393l2.659,0.393l8.569,-2.209l4.403,-0.629l4.11,0.686l3.588,2.881l1.972,3.845l1.544,4.167l2.223,3.752l3.152,2.866l4.109,2.187l4.668,1.451l4.831,0.1l4.882,-2.266l0.507,-4.031l-0.75,-4.753l1.072,-4.381l6.282,-1.015l6.161,8.32l9.013,18.061l6.532,4.131l7.948,1.029l5.907,-0.642l0,-74.474Z" style="fill:#dc002c;"/></svg>